<svg id="svg" xmlns="http://www.w3.org/2000/svg" xmlns:xlink="http://www.w3.org/1999/xlink" width="200" height="200" viewBox="0, 0, 500,387"><g id="svgg"><path id="path0" d="M170.648 33.131 C 160.926 53.586,145.527 57.793,111.125 49.394 C 108.650 48.789,106.578 48.341,106.520 48.398 C 106.462 48.455,106.554 50.048,106.723 51.938 C 108.737 74.379,104.678 89.300,94.468 96.994 L 92.499 98.477 93.312 98.598 C 93.759 98.665,95.961 98.837,98.204 98.981 C 102.750 99.273,103.774 99.580,104.418 100.846 C 104.635 101.275,104.838 101.654,104.868 101.691 C 105.101 101.970,107.416 100.514,108.258 99.559 C 115.219 91.668,119.027 81.063,120.141 66.474 L 120.286 64.572 122.580 65.048 C 144.279 69.546,162.999 66.181,173.750 55.850 L 175.625 54.048 178.000 56.172 C 201.452 77.143,228.309 80.465,247.154 64.726 C 249.104 63.097,249.194 63.052,249.433 63.578 C 250.703 66.361,256.866 72.882,260.529 75.318 C 278.522 87.282,308.016 79.774,338.750 55.405 C 340.469 54.042,342.022 52.812,342.202 52.671 C 342.449 52.478,343.098 52.971,344.827 54.662 C 354.465 64.090,365.022 70.020,376.436 72.416 C 380.350 73.237,388.448 73.393,391.688 72.710 L 393.500 72.327 393.500 73.616 C 393.500 81.127,397.787 100.031,399.482 99.991 C 400.304 99.971,408.507 98.827,408.618 98.716 C 408.682 98.652,408.453 97.770,408.110 96.756 C 405.410 88.776,404.516 78.328,405.350 64.500 C 405.570 60.856,405.749 57.292,405.750 56.578 L 405.750 55.282 403.563 56.024 C 379.952 64.039,362.786 57.500,344.496 33.523 L 343.868 32.699 338.239 37.662 C 317.418 56.022,308.074 61.946,294.349 65.488 C 275.936 70.241,265.909 63.240,253.601 37.039 L 252.855 35.452 248.001 41.906 C 235.942 57.939,228.332 62.385,215.959 60.630 C 203.491 58.862,191.900 51.212,175.819 34.139 L 172.064 30.153 170.648 33.131 M445.984 96.161 C 441.680 99.191,440.702 100.017,440.887 100.465 C 441.828 102.733,441.764 102.874,436.420 110.313 C 434.024 113.647,430.713 118.261,429.061 120.567 L 426.058 124.759 425.633 127.517 C 421.520 154.229,432.742 172.750,457.230 179.667 C 457.429 179.723,456.605 180.407,455.355 181.223 C 448.490 185.707,441.141 193.804,436.382 202.125 C 435.989 202.813,435.504 203.628,435.305 203.938 C 434.350 205.420,435.472 204.155,438.076 200.813 C 446.832 189.574,457.836 181.814,468.313 179.489 C 470.195 179.072,470.130 178.930,467.813 178.392 C 444.988 173.095,435.416 165.603,432.659 150.875 C 430.164 137.541,433.180 124.979,444.139 103.063 C 446.494 98.353,448.403 94.500,448.382 94.500 C 448.360 94.500,447.281 95.247,445.984 96.161 M380.959 98.874 C 361.077 102.659,354.958 131.314,371.910 141.256 C 379.413 145.656,391.752 144.185,398.515 138.083 L 399.577 137.125 399.405 127.012 C 399.310 121.450,399.193 116.860,399.145 116.811 C 399.014 116.680,381.466 117.201,381.327 117.339 C 381.262 117.405,381.145 119.436,381.066 121.854 L 380.924 126.250 384.462 126.250 L 388.000 126.250 388.000 127.514 C 388.000 128.777,387.999 128.778,386.841 129.291 C 381.307 131.739,376.401 127.710,376.816 121.060 C 377.302 113.273,385.387 109.259,394.785 112.141 C 395.232 112.278,395.496 109.989,395.652 104.625 C 395.692 103.250,395.758 101.790,395.800 101.380 C 395.995 99.446,386.434 97.831,380.959 98.874 M183.681 99.371 C 181.042 99.745,177.751 100.518,176.085 101.154 L 175.045 101.551 174.906 104.088 C 174.830 105.483,174.650 112.250,174.506 119.125 C 174.362 126.000,174.173 134.072,174.086 137.063 L 173.928 142.500 180.431 142.500 L 186.933 142.500 187.096 138.313 C 187.185 136.009,187.326 133.192,187.409 132.053 L 187.561 129.980 189.431 130.053 L 191.302 130.125 193.553 136.375 C 194.790 139.813,195.829 142.654,195.862 142.689 C 195.953 142.790,208.978 140.106,209.128 139.955 C 209.202 139.882,207.682 137.021,205.751 133.598 L 202.240 127.375 202.807 126.933 C 208.061 122.844,209.402 120.193,209.347 114.000 C 209.249 102.885,199.212 97.164,183.681 99.371 M335.444 99.370 C 329.437 100.221,326.822 101.176,326.639 102.585 C 326.525 103.471,325.741 137.388,325.748 141.188 L 325.750 142.500 332.218 142.500 L 338.686 142.500 338.850 137.438 C 338.940 134.653,339.077 131.841,339.155 131.188 L 339.297 130.000 341.124 130.000 C 342.891 130.000,342.959 130.023,343.199 130.688 C 345.713 137.671,347.519 142.603,347.589 142.672 C 347.693 142.777,359.928 140.306,360.567 140.051 C 360.949 139.899,360.532 139.029,357.485 133.625 L 353.961 127.375 354.793 126.759 C 357.469 124.779,359.000 122.891,359.000 121.571 C 359.000 120.073,359.791 116.064,360.557 113.683 C 362.258 108.395,356.925 101.771,349.301 99.701 C 346.812 99.025,339.170 98.843,335.444 99.370 M259.793 99.626 C 256.723 99.798,254.124 100.037,254.017 100.157 C 253.911 100.277,253.637 108.588,253.408 118.625 C 253.180 128.662,252.925 138.142,252.841 139.692 L 252.690 142.508 259.532 142.442 L 266.375 142.375 267.029 131.625 C 267.388 125.713,267.702 120.819,267.726 120.750 C 267.777 120.601,268.525 122.493,272.670 133.250 C 274.392 137.719,275.893 141.549,276.006 141.761 C 276.207 142.137,280.383 141.857,290.125 140.813 L 291.875 140.625 292.172 135.000 C 292.335 131.906,292.819 122.809,293.248 114.784 C 293.676 106.759,293.973 100.139,293.906 100.073 C 293.758 99.924,280.058 100.359,279.899 100.517 C 279.837 100.580,279.707 104.623,279.611 109.503 C 279.515 114.383,279.365 118.814,279.278 119.351 C 279.125 120.290,278.926 119.927,274.058 109.851 L 268.997 99.375 267.186 99.344 C 266.190 99.327,262.863 99.454,259.793 99.626 M224.288 101.938 C 224.271 103.141,224.067 112.814,223.834 123.434 C 223.600 134.054,223.469 142.803,223.543 142.876 C 223.671 143.004,249.044 142.501,249.203 142.368 C 249.282 142.302,249.988 131.224,249.996 129.938 L 250.000 129.250 243.615 129.250 L 237.229 129.250 237.385 127.313 C 237.470 126.247,237.584 125.234,237.637 125.063 C 237.709 124.833,238.622 124.750,241.082 124.750 C 242.924 124.750,244.936 124.681,245.555 124.596 L 246.680 124.442 246.846 121.783 C 246.937 120.321,247.081 118.253,247.167 117.188 L 247.322 115.250 242.815 115.250 L 238.308 115.250 238.434 113.563 C 238.600 111.353,238.101 111.541,244.664 111.206 L 250.429 110.912 250.590 108.292 C 250.678 106.851,250.750 104.340,250.750 102.711 L 250.750 99.750 237.534 99.750 L 224.318 99.750 224.288 101.938 M297.240 99.813 C 297.169 100.252,296.288 142.871,296.349 142.932 C 296.502 143.085,321.872 142.444,322.034 142.283 C 322.201 142.117,322.757 133.152,322.752 130.688 L 322.750 129.250 316.500 129.250 L 310.250 129.250 310.250 127.641 C 310.250 126.756,310.360 125.744,310.494 125.391 L 310.738 124.750 314.181 124.747 C 320.096 124.743,319.509 125.403,319.901 118.313 L 320.071 115.250 315.625 115.250 L 311.178 115.250 311.345 113.452 C 311.437 112.463,311.547 111.619,311.590 111.577 C 311.632 111.534,314.273 111.367,317.459 111.204 L 323.250 110.908 323.279 109.767 C 323.295 109.139,323.292 108.456,323.274 108.250 C 323.201 107.443,323.715 100.600,323.879 100.188 C 324.044 99.774,323.315 99.750,310.652 99.750 C 303.281 99.750,297.245 99.778,297.240 99.813 M69.571 102.232 C 65.554 102.736,62.221 103.200,62.165 103.262 C 62.108 103.324,62.845 105.400,63.802 107.875 C 64.759 110.350,66.669 115.300,68.046 118.875 L 70.549 125.375 70.392 134.813 L 70.235 144.250 77.338 144.250 L 84.440 144.250 84.594 141.688 C 84.679 140.278,84.871 136.031,85.021 132.250 L 85.294 125.375 90.106 118.625 C 92.752 114.912,95.331 111.200,95.836 110.375 C 96.342 109.550,97.208 108.313,97.761 107.625 C 99.930 104.927,101.762 102.379,101.573 102.321 C 100.774 102.072,87.580 101.330,87.350 101.521 C 87.196 101.649,86.334 103.018,85.435 104.564 C 81.356 111.580,79.972 113.875,79.819 113.875 C 79.728 113.875,79.134 111.069,78.498 107.640 C 77.862 104.211,77.237 101.385,77.108 101.361 C 76.980 101.336,73.588 101.728,69.571 102.232 M157.571 108.938 C 157.577 123.700,155.700 132.750,152.633 132.750 C 149.077 132.750,148.102 122.582,150.239 107.795 C 150.630 105.089,150.905 102.828,150.850 102.771 C 150.796 102.714,148.191 102.576,145.063 102.464 C 141.935 102.352,138.836 102.230,138.176 102.192 C 136.772 102.113,136.955 101.691,136.264 106.625 C 132.908 130.582,138.558 144.283,151.791 144.283 C 161.100 144.283,167.572 136.554,170.526 121.911 C 171.536 116.906,172.067 107.355,171.589 102.787 L 171.429 101.250 164.498 101.250 L 157.568 101.250 157.571 108.938 M406.000 102.262 C 401.944 102.785,398.611 103.221,398.593 103.231 C 398.575 103.242,400.468 108.172,402.800 114.188 L 407.039 125.125 406.901 134.688 L 406.762 144.250 413.849 144.250 L 420.935 144.250 421.086 142.313 C 421.168 141.247,421.370 137.000,421.533 132.875 L 421.830 125.375 430.055 113.880 C 434.578 107.558,438.188 102.356,438.077 102.322 C 437.643 102.187,424.130 101.295,423.975 101.391 C 423.884 101.447,422.143 104.323,420.106 107.783 C 417.217 112.689,416.361 113.968,416.216 113.599 C 416.114 113.338,415.568 110.546,415.003 107.394 C 413.976 101.665,413.871 101.223,413.548 101.281 C 413.453 101.298,410.056 101.740,406.000 102.262 M81.815 102.565 L 80.755 102.820 80.910 103.847 C 81.144 105.408,81.387 105.430,82.226 103.966 C 82.892 102.806,83.158 102.174,82.938 102.280 C 82.903 102.297,82.398 102.425,81.815 102.565 M112.000 102.745 C 102.002 104.000,94.342 114.399,95.730 124.831 C 98.270 143.916,123.197 148.192,131.691 131.000 C 132.743 128.872,132.688 129.774,132.398 119.393 L 132.230 113.411 131.337 111.711 C 128.034 105.425,120.070 101.733,112.000 102.745 M193.590 109.978 C 196.676 111.886,196.777 116.955,193.772 119.136 C 192.198 120.280,188.147 121.188,187.975 120.436 C 187.790 119.629,188.348 109.591,188.587 109.425 C 189.191 109.005,192.631 109.385,193.590 109.978 M344.080 109.518 C 348.096 110.633,348.996 116.702,345.505 119.121 C 343.877 120.250,340.056 121.198,339.668 120.570 C 339.394 120.126,340.019 109.643,340.333 109.444 C 340.764 109.169,342.983 109.213,344.080 109.518 M116.188 116.042 C 121.270 117.322,121.767 126.382,116.884 128.745 C 112.668 130.787,108.875 127.770,108.875 122.375 C 108.875 117.567,111.887 114.959,116.188 116.042 M64.922 124.558 C 64.252 144.541,55.029 159.185,33.226 174.883 L 30.009 177.199 32.067 177.364 C 43.973 178.317,54.440 185.395,66.301 200.514 L 66.977 201.375 66.988 199.942 C 67.027 195.234,52.877 179.814,44.837 175.803 L 42.548 174.661 44.712 173.168 C 53.587 167.039,62.182 157.776,67.123 149.015 L 68.313 146.906 67.744 145.864 L 67.174 144.821 67.355 135.468 L 67.536 126.115 66.382 123.130 C 65.748 121.488,65.194 120.111,65.152 120.068 C 65.109 120.026,65.006 122.046,64.922 124.558 M127.125 153.657 C 109.590 155.561,97.963 170.620,102.249 185.875 C 104.825 195.044,111.076 199.719,121.500 200.274 C 130.260 200.740,133.351 202.413,131.624 205.753 C 129.617 209.632,115.401 208.721,106.252 204.126 C 103.441 202.714,103.655 202.482,103.142 207.500 C 102.910 209.769,102.445 214.162,102.110 217.263 C 101.310 224.660,101.278 224.138,102.563 224.714 C 105.949 226.234,107.532 226.849,111.250 228.087 C 118.054 230.352,120.555 230.843,125.125 230.808 C 143.698 230.667,155.502 219.759,155.488 202.750 C 155.477 189.866,148.763 183.846,133.750 183.261 C 126.503 182.979,124.250 182.080,124.250 179.471 C 124.250 175.286,135.482 174.225,146.373 177.381 C 149.611 178.320,149.591 178.330,149.793 175.625 C 149.956 173.441,151.104 161.173,151.387 158.599 L 151.527 157.323 150.326 156.817 C 144.564 154.392,133.828 152.929,127.125 153.657 M393.287 154.520 C 388.254 154.758,385.150 155.199,380.058 156.400 C 377.184 157.077,372.770 158.438,372.351 158.776 C 371.950 159.099,371.868 161.846,371.007 203.500 C 370.881 209.619,370.697 217.916,370.598 221.938 L 370.420 229.250 381.548 229.250 L 392.677 229.250 392.835 226.438 C 392.922 224.891,393.116 220.419,393.267 216.500 C 393.418 212.581,393.623 209.037,393.723 208.625 L 393.906 207.875 397.023 207.805 L 400.140 207.736 400.965 210.055 C 401.419 211.331,402.504 214.344,403.376 216.750 C 404.248 219.156,405.600 222.925,406.382 225.125 C 407.163 227.325,407.932 229.252,408.089 229.407 C 408.527 229.838,431.157 225.231,431.043 224.734 C 430.997 224.537,428.899 220.719,426.379 216.250 C 423.860 211.781,421.430 207.450,420.980 206.625 C 420.529 205.800,419.956 204.787,419.706 204.375 C 419.034 203.265,419.090 203.155,421.063 201.732 C 426.912 197.512,429.911 192.807,431.124 185.950 C 433.888 170.320,424.417 157.650,408.000 155.015 C 403.184 154.242,400.822 154.163,393.287 154.520 M85.125 158.015 C 78.250 158.400,72.372 158.723,72.063 158.732 L 71.500 158.750 71.500 193.863 L 71.500 228.976 73.563 228.843 C 74.697 228.771,79.542 228.510,84.329 228.264 C 89.116 228.018,93.118 227.718,93.222 227.596 C 93.558 227.204,96.820 185.177,96.887 180.375 C 96.934 177.043,97.084 175.194,97.468 173.250 C 97.862 171.250,99.007 159.541,99.001 157.563 C 99.000 157.381,98.713 157.264,98.313 157.282 C 97.934 157.300,92.000 157.630,85.125 158.015 M342.291 158.220 C 342.013 158.396,342.005 159.780,342.248 166.403 C 343.099 189.600,339.611 210.383,334.514 212.494 C 327.640 215.341,325.464 193.191,329.983 166.375 C 330.490 163.371,330.794 160.961,330.681 160.848 C 330.540 160.707,316.247 160.075,310.512 159.955 L 306.649 159.875 306.088 163.250 C 304.246 174.344,303.360 187.689,304.005 194.625 C 304.639 201.438,304.829 203.037,305.296 205.500 C 308.123 220.417,315.203 229.521,325.813 231.883 C 344.513 236.045,359.681 221.043,364.622 193.500 C 364.708 193.019,364.941 191.725,365.140 190.625 C 367.047 180.055,367.324 158.896,365.565 158.227 C 364.810 157.940,342.743 157.933,342.291 158.220 M221.137 158.749 C 220.836 159.093,218.013 163.856,211.454 175.087 C 208.523 180.105,208.350 180.364,208.145 180.032 C 207.981 179.766,207.483 177.225,206.264 170.438 C 205.698 167.283,204.246 159.572,204.116 159.027 C 203.959 158.371,203.295 158.366,198.500 158.991 C 197.469 159.125,195.725 159.347,194.625 159.484 C 193.525 159.621,190.319 160.022,187.500 160.375 C 184.681 160.728,181.420 161.130,180.253 161.268 C 179.086 161.406,178.040 161.610,177.929 161.721 C 177.819 161.831,179.263 165.905,181.140 170.774 C 183.017 175.642,184.979 180.750,185.499 182.125 C 186.414 184.542,189.914 193.647,191.603 198.000 L 192.427 200.125 192.232 210.625 C 192.124 216.400,192.000 223.600,191.956 226.625 L 191.875 232.125 204.042 232.190 L 216.210 232.255 216.362 230.690 C 216.446 229.829,216.623 226.256,216.757 222.750 C 217.299 208.518,217.493 204.021,217.653 201.897 L 217.821 199.668 223.120 192.272 C 227.899 185.599,238.563 170.744,243.110 164.422 C 246.441 159.793,246.435 160.121,243.188 159.907 C 240.530 159.731,237.047 159.479,230.625 158.996 C 222.195 158.363,221.491 158.345,221.137 158.749 M264.375 160.727 C 249.168 162.309,236.750 175.879,235.588 192.186 C 232.789 231.461,286.988 242.348,299.379 205.000 L 300.084 202.875 299.748 198.500 C 299.563 196.094,299.398 191.256,299.381 187.750 C 299.346 180.611,299.411 180.936,297.174 176.634 C 291.436 165.600,278.386 159.270,264.375 160.727 M401.375 172.343 C 409.965 174.206,410.847 186.473,402.663 190.261 C 400.778 191.134,397.544 191.805,395.728 191.702 L 394.375 191.625 394.385 190.125 C 394.413 185.751,395.081 172.834,395.292 172.577 C 395.782 171.982,399.118 171.853,401.375 172.343 M270.111 183.497 C 282.004 186.162,280.029 206.522,267.875 206.552 C 255.876 206.581,254.166 186.013,265.969 183.620 C 267.896 183.230,268.799 183.203,270.111 183.497 M75.998 244.881 C 75.547 245.915,75.222 246.803,75.276 246.855 C 75.331 246.906,76.275 247.228,77.375 247.569 C 78.475 247.911,82.862 249.329,87.124 250.720 C 95.767 253.542,96.444 253.694,93.750 252.212 C 92.719 251.644,88.586 249.339,84.565 247.090 C 80.545 244.840,77.157 243.000,77.037 243.000 C 76.916 243.000,76.449 243.846,75.998 244.881 M419.500 244.803 C 417.781 245.779,413.677 248.079,410.379 249.914 C 407.082 251.749,404.551 253.250,404.755 253.250 C 404.959 253.250,408.614 252.112,412.876 250.720 C 417.138 249.329,421.525 247.911,422.625 247.569 C 423.725 247.228,424.669 246.906,424.724 246.855 C 424.917 246.671,423.177 243.000,422.904 243.015 C 422.750 243.023,421.219 243.828,419.500 244.803 M186.165 246.021 C 181.613 246.638,177.296 247.854,176.984 248.606 C 176.810 249.027,175.988 281.901,175.997 288.063 L 176.000 289.750 182.474 289.750 L 188.949 289.750 189.110 286.313 C 189.199 284.422,189.351 281.581,189.448 280.000 L 189.625 277.125 191.491 277.125 L 193.357 277.125 194.049 279.000 C 194.430 280.031,195.439 282.844,196.290 285.250 C 197.142 287.656,197.904 289.701,197.982 289.793 C 198.124 289.960,210.054 287.651,210.511 287.368 C 210.857 287.154,210.801 285.728,210.418 285.000 C 210.237 284.656,208.825 282.137,207.280 279.402 C 205.736 276.666,204.563 274.351,204.673 274.256 C 204.784 274.161,205.576 273.544,206.433 272.884 C 210.262 269.934,210.910 268.380,211.129 261.625 L 211.298 256.375 210.357 254.500 C 206.908 247.632,197.807 244.442,186.165 246.021 M225.000 245.898 C 224.656 245.955,223.531 246.120,222.500 246.265 C 219.165 246.733,214.991 247.991,214.763 248.596 C 214.613 248.995,213.721 284.358,213.746 288.938 L 213.750 289.750 220.225 289.750 L 226.701 289.750 226.852 286.938 C 226.936 285.391,227.087 282.550,227.189 280.625 L 227.375 277.125 229.250 277.056 L 231.125 276.987 233.375 283.267 C 234.613 286.721,235.681 289.637,235.750 289.749 C 235.819 289.860,238.716 289.383,242.188 288.689 L 248.500 287.427 248.500 286.473 C 248.500 285.718,247.875 284.407,245.500 280.176 C 242.003 273.948,242.102 274.434,244.044 273.000 C 245.744 271.745,247.205 270.040,248.207 268.140 C 249.095 266.459,249.375 257.564,248.605 255.523 C 247.051 251.402,243.208 248.129,238.125 246.598 C 235.953 245.943,227.452 245.490,225.000 245.898 M123.000 246.153 C 113.144 247.932,106.459 254.976,104.655 265.482 C 101.665 282.887,114.306 293.846,130.929 288.260 C 133.717 287.323,133.504 287.765,134.028 281.828 C 134.536 276.079,134.453 273.365,133.776 273.599 C 133.555 273.675,132.194 274.161,130.750 274.679 C 123.648 277.226,118.897 275.020,118.941 269.196 C 118.985 263.434,123.841 259.771,131.081 260.039 C 133.080 260.113,133.750 260.060,133.750 259.830 C 133.750 259.661,134.052 257.239,134.421 254.449 C 134.790 251.658,135.100 248.925,135.109 248.375 L 135.125 247.375 133.375 246.773 C 131.664 246.184,125.026 245.787,123.000 246.153 M287.821 246.363 C 284.903 246.521,282.475 246.701,282.424 246.763 C 282.373 246.824,282.140 255.088,281.907 265.125 C 281.673 275.163,281.413 284.809,281.328 286.563 L 281.175 289.750 288.088 289.750 C 293.450 289.750,295.001 289.680,295.002 289.438 C 295.013 287.889,296.273 267.894,296.365 267.802 C 296.432 267.735,296.609 268.006,296.759 268.403 C 297.759 271.049,303.672 286.415,304.180 287.688 L 304.803 289.250 305.964 289.232 C 306.603 289.222,310.161 288.911,313.871 288.542 L 320.617 287.870 320.821 286.872 C 320.932 286.324,321.057 281.375,321.098 275.875 C 321.165 266.864,321.224 265.628,321.695 263.375 C 322.059 261.638,322.302 259.082,322.492 255.000 C 322.642 251.769,322.830 248.578,322.910 247.910 L 323.055 246.695 316.715 246.859 C 313.228 246.949,309.966 247.082,309.466 247.154 L 308.556 247.284 308.372 257.267 C 308.270 262.758,308.108 267.250,308.012 267.250 C 307.916 267.250,305.540 262.469,302.732 256.625 L 297.628 246.000 295.376 246.038 C 294.138 246.058,290.738 246.204,287.821 246.363 M342.500 246.236 C 331.208 248.298,324.164 257.747,324.133 270.875 C 324.099 285.718,337.815 293.907,352.313 287.697 C 353.360 287.249,353.502 287.096,353.516 286.407 C 353.524 285.977,353.780 282.833,354.083 279.421 C 354.720 272.256,354.828 272.827,353.007 273.746 C 344.985 277.796,338.336 275.445,338.811 268.726 C 339.204 263.180,343.750 259.874,350.750 260.046 L 353.625 260.116 353.968 257.272 C 354.311 254.429,354.311 254.426,353.653 252.526 C 352.833 250.158,352.830 249.321,353.637 248.131 C 353.988 247.614,354.216 247.133,354.144 247.061 C 353.401 246.317,345.226 245.738,342.500 246.236 M252.663 246.438 C 252.446 246.790,251.375 289.959,251.579 290.162 C 251.742 290.325,277.357 289.702,277.550 289.530 C 277.646 289.445,277.843 287.125,277.987 284.375 C 278.132 281.625,278.312 278.730,278.387 277.942 L 278.524 276.508 272.074 276.442 L 265.625 276.375 265.715 274.250 C 265.827 271.612,265.543 271.758,270.548 271.754 C 273.089 271.751,274.782 271.651,274.877 271.497 C 275.069 271.187,275.688 262.522,275.530 262.363 C 275.468 262.301,273.473 262.250,271.098 262.250 C 268.723 262.250,266.737 262.166,266.686 262.063 C 266.634 261.959,266.656 261.087,266.734 260.125 L 266.875 258.375 272.871 258.045 C 276.170 257.864,278.884 257.695,278.904 257.670 C 278.925 257.645,278.982 255.094,279.033 252.000 L 279.125 246.375 265.954 246.310 C 258.709 246.275,252.729 246.332,252.663 246.438 M159.188 248.184 C 159.135 248.289,159.188 250.231,159.306 252.500 C 159.918 264.233,157.873 277.735,155.200 279.607 C 150.838 282.662,149.380 268.335,152.335 251.457 L 152.671 249.540 151.273 249.401 C 150.504 249.324,147.281 249.189,144.111 249.100 L 138.347 248.939 137.798 253.032 C 134.445 278.041,139.921 291.576,153.375 291.532 C 166.077 291.491,173.752 277.095,173.450 253.875 L 173.375 248.125 166.330 248.059 C 162.455 248.022,159.241 248.078,159.188 248.184 M363.559 248.992 C 359.536 249.504,356.204 249.968,356.154 250.024 C 356.105 250.080,358.019 255.188,360.407 261.375 L 364.748 272.625 364.562 281.959 C 364.459 287.092,364.422 291.339,364.479 291.396 C 364.588 291.505,378.742 291.546,378.761 291.438 C 378.823 291.085,379.486 275.458,379.492 274.202 L 379.500 272.528 387.874 260.827 C 392.479 254.391,396.164 249.100,396.061 249.069 C 395.304 248.842,381.835 248.065,381.662 248.238 C 381.542 248.358,379.836 251.191,377.871 254.533 C 375.906 257.875,374.200 260.642,374.081 260.681 C 373.961 260.721,373.372 258.025,372.772 254.690 C 371.568 247.993,371.567 247.987,371.161 248.030 C 371.004 248.047,367.583 248.479,363.559 248.992 M60.667 255.417 C 60.305 255.779,60.480 264.508,60.852 264.651 C 61.045 264.725,62.873 264.560,64.914 264.283 C 66.955 264.007,70.425 263.551,72.625 263.270 C 74.825 262.989,78.763 262.480,81.375 262.140 C 83.987 261.799,88.431 261.228,91.250 260.871 C 96.847 260.161,101.319 259.514,101.435 259.398 C 101.476 259.357,100.691 259.252,99.692 259.164 C 98.693 259.075,95.175 258.719,91.875 258.371 C 85.466 257.695,79.425 257.071,71.375 256.254 C 68.625 255.975,65.478 255.635,64.382 255.498 C 62.058 255.209,60.900 255.183,60.667 255.417 M435.250 255.521 C 434.356 255.641,431.375 255.969,428.625 256.250 C 418.989 257.235,414.075 257.743,408.125 258.371 C 404.825 258.719,401.307 259.075,400.308 259.164 C 399.309 259.252,398.524 259.357,398.565 259.398 C 398.681 259.514,403.153 260.161,408.750 260.871 C 411.569 261.228,416.012 261.799,418.625 262.140 C 421.238 262.480,425.175 262.989,427.375 263.270 C 429.575 263.551,433.045 264.007,435.086 264.283 C 439.970 264.944,439.524 265.388,439.443 259.943 L 439.375 255.375 438.125 255.339 C 437.438 255.319,436.144 255.401,435.250 255.521 M195.503 256.751 C 197.452 257.746,198.515 260.477,197.964 263.072 C 197.423 265.617,195.195 267.159,191.368 267.637 L 189.933 267.816 190.098 263.220 C 190.324 256.937,190.411 256.308,191.084 256.159 C 192.128 255.928,194.516 256.248,195.503 256.751 M233.336 256.812 C 236.244 258.418,236.812 262.838,234.441 265.410 C 233.300 266.648,231.662 267.351,229.283 267.624 L 227.690 267.806 227.851 263.715 C 228.115 257.006,228.208 256.299,228.836 256.159 C 229.954 255.911,232.328 256.256,233.336 256.812 M397.919 266.741 C 398.032 266.839,402.231 268.470,407.250 270.365 C 412.269 272.260,419.459 274.979,423.228 276.406 C 426.997 277.834,430.134 278.949,430.199 278.885 C 430.368 278.715,431.731 273.703,431.741 273.209 C 431.747 272.912,431.449 272.746,430.688 272.623 C 430.103 272.530,427.038 271.966,423.875 271.370 C 420.712 270.774,415.706 269.831,412.750 269.274 C 407.891 268.359,399.768 266.887,398.294 266.654 C 397.974 266.603,397.805 266.643,397.919 266.741 M97.875 267.278 C 96.500 267.545,92.338 268.331,88.625 269.024 C 84.912 269.718,79.287 270.774,76.125 271.369 C 72.963 271.965,69.897 272.530,69.313 272.623 C 68.551 272.746,68.253 272.912,68.259 273.209 C 68.269 273.703,69.632 278.715,69.802 278.885 C 69.866 278.950,72.834 277.898,76.397 276.548 C 79.960 275.199,87.009 272.527,92.063 270.611 C 102.592 266.618,103.266 266.232,97.875 267.278 M80.412 283.392 C 73.557 287.559,67.897 291.020,67.832 291.084 C 67.684 291.233,70.745 295.375,71.004 295.375 C 71.110 295.375,73.932 292.956,77.274 290.000 C 80.617 287.044,85.438 282.786,87.988 280.537 C 93.489 275.688,93.118 276.032,92.983 275.913 C 92.924 275.860,87.267 279.226,80.412 283.392 M407.038 275.973 C 407.086 276.108,409.268 278.110,411.888 280.422 C 414.507 282.734,419.385 287.044,422.727 290.000 C 426.069 292.956,428.890 295.375,428.996 295.375 C 429.342 295.375,432.297 291.197,432.083 291.010 C 431.969 290.911,428.894 289.026,425.250 286.823 C 421.606 284.619,415.998 281.221,412.788 279.272 C 409.577 277.322,406.990 275.838,407.038 275.973 M275.818 306.052 C 275.917 308.289,276.195 310.179,276.839 313.000 C 277.774 317.090,278.215 320.250,277.851 320.250 C 277.659 320.250,260.022 317.537,226.408 312.335 C 211.543 310.035,211.206 310.168,212.988 317.625 C 214.676 324.691,214.840 324.607,202.108 323.134 C 182.842 320.905,133.538 315.500,132.471 315.500 C 130.611 315.500,126.248 316.522,126.251 316.958 C 126.253 317.181,238.228 346.356,238.404 346.179 C 238.929 345.654,238.746 343.936,237.906 341.519 C 237.412 340.099,237.064 338.849,237.131 338.741 C 237.538 338.082,239.308 338.239,242.547 339.220 C 244.377 339.775,252.344 342.097,260.250 344.381 C 274.843 348.595,284.606 351.470,295.869 354.867 C 306.092 357.950,307.559 357.338,306.033 350.625 C 305.752 349.387,305.122 346.631,304.633 344.500 C 304.009 341.779,303.696 339.704,303.582 337.534 L 303.420 334.443 304.147 334.598 C 318.823 337.725,373.186 348.657,373.335 348.511 C 373.451 348.397,373.563 347.947,373.585 347.509 L 373.625 346.713 325.250 325.113 C 298.644 313.232,276.607 303.392,276.278 303.246 L 275.682 302.980 275.818 306.052 " stroke="none" fill="#000000" fill-rule="evenodd"></path></g></svg>