<svg id="svg" version="1.1" xmlns="http://www.w3.org/2000/svg" xmlns:xlink="http://www.w3.org/1999/xlink" width="200" height="200" viewBox="0, 0, 400,402.1164021164021"><g id="svgg"><path id="path0" d="M173.568 294.513 C 171.030 295.187,166.701 298.684,165.479 301.047 C 165.135 301.713,164.571 302.492,164.226 302.778 C 163.882 303.064,163.600 303.611,163.600 303.993 C 163.600 304.376,163.158 305.340,162.618 306.136 C 162.077 306.932,161.446 308.286,161.215 309.145 C 160.983 310.004,160.538 310.920,160.225 311.180 C 159.911 311.440,159.455 312.583,159.211 313.721 C 158.967 314.859,158.489 316.215,158.148 316.736 C 157.807 317.256,157.366 318.824,157.169 320.220 C 156.971 321.615,156.465 323.442,156.044 324.279 C 155.623 325.115,155.158 327.133,155.009 328.762 C 154.861 330.391,154.408 332.564,154.004 333.591 C 153.524 334.807,153.118 337.467,152.839 341.228 C 152.602 344.403,152.135 347.990,151.801 349.200 C 151.393 350.676,151.112 354.230,150.948 360.000 L 150.704 368.600 148.259 370.900 C 146.915 372.165,145.630 373.200,145.403 373.200 C 145.177 373.200,144.768 373.560,144.493 374.000 C 144.218 374.440,143.750 374.800,143.452 374.800 C 143.155 374.800,142.212 375.275,141.357 375.855 C 136.334 379.264,125.566 377.205,124.566 372.645 C 124.416 371.960,123.957 370.773,123.547 370.006 C 122.568 368.179,122.497 362.389,123.431 360.600 C 123.776 359.940,124.223 358.527,124.426 357.460 C 125.505 351.777,131.508 347.429,134.421 350.220 C 136.008 351.741,136.146 352.389,135.569 355.617 C 134.909 359.311,135.734 361.208,137.991 361.187 C 143.755 361.132,145.823 348.831,140.896 343.904 C 138.290 341.297,129.581 340.102,127.342 342.043 C 126.934 342.397,126.006 342.886,125.280 343.130 C 123.176 343.835,116.800 349.300,116.800 350.397 C 116.800 350.602,116.464 351.091,116.054 351.484 C 115.644 351.878,114.999 353.145,114.622 354.300 C 114.244 355.455,113.779 356.400,113.588 356.400 C 113.397 356.400,113.026 357.487,112.765 358.815 C 112.195 361.712,110.657 362.739,108.200 361.865 C 105.899 361.046,105.058 356.572,106.634 353.542 C 107.112 352.625,107.391 350.930,107.515 348.188 L 107.697 344.177 106.208 342.688 C 104.521 341.001,100.180 340.527,98.000 341.792 C 97.450 342.112,96.257 342.723,95.350 343.151 C 93.518 344.014,87.418 349.882,87.008 351.175 C 86.864 351.629,86.581 352.000,86.378 352.000 C 86.176 352.000,85.730 352.673,85.386 353.495 C 85.043 354.317,84.434 355.352,84.033 355.795 C 83.633 356.238,83.182 357.119,83.032 357.752 C 82.557 359.754,79.352 362.631,78.783 361.567 C 78.425 360.899,78.462 360.350,78.952 359.056 C 79.296 358.145,79.752 355.870,79.963 354.000 C 80.175 352.130,80.728 349.745,81.192 348.701 C 81.839 347.246,82.009 346.171,81.918 344.101 L 81.800 341.400 78.600 341.412 C 75.348 341.424,72.400 343.096,72.400 344.929 C 72.400 345.205,72.033 346.144,71.583 347.015 C 71.134 347.887,70.590 349.985,70.374 351.677 C 70.158 353.369,69.694 355.529,69.343 356.477 C 68.954 357.525,68.588 360.357,68.408 363.711 C 68.127 368.927,68.055 369.280,67.058 370.311 C 66.479 370.910,65.402 372.030,64.665 372.800 C 59.896 377.780,55.819 378.585,54.787 374.751 C 54.185 372.515,54.907 362.307,55.759 361.007 C 56.138 360.428,56.544 358.300,56.804 355.530 C 57.038 353.038,57.407 350.332,57.626 349.515 C 58.529 346.137,57.446 345.068,52.847 344.800 L 49.412 344.600 48.457 342.865 L 47.501 341.130 43.392 341.265 C 40.316 341.366,39.095 341.563,38.541 342.049 C 38.133 342.407,37.080 342.928,36.200 343.207 C 35.320 343.487,34.091 344.140,33.469 344.658 C 32.847 345.176,32.199 345.600,32.029 345.600 C 31.858 345.600,31.154 346.140,30.463 346.800 C 29.772 347.460,29.026 348.000,28.804 348.000 C 28.582 348.000,28.400 348.203,28.400 348.452 C 28.400 348.700,27.815 349.590,27.100 350.430 C 24.866 353.055,24.000 354.306,24.000 354.907 C 24.000 355.227,23.548 356.154,22.997 356.967 C 22.445 357.780,21.805 359.290,21.574 360.323 C 21.344 361.355,20.851 362.650,20.478 363.200 C 19.314 364.916,19.487 376.220,20.700 377.763 C 21.195 378.393,21.600 379.233,21.600 379.630 C 21.600 380.661,24.663 384.101,26.147 384.737 C 26.836 385.032,27.731 385.570,28.136 385.931 C 29.309 386.980,34.580 386.819,36.400 385.679 C 37.170 385.197,38.097 384.802,38.460 384.801 C 39.046 384.800,40.453 383.582,42.461 381.338 C 44.970 378.535,46.027 378.283,46.879 380.289 C 49.008 385.300,56.017 388.332,59.372 385.694 C 59.997 385.202,60.834 384.800,61.233 384.800 C 61.632 384.800,63.055 383.887,64.395 382.772 C 67.373 380.294,68.449 380.383,69.918 383.230 C 72.781 388.779,78.935 387.143,80.009 380.548 C 80.210 379.310,80.657 377.867,81.003 377.340 C 81.348 376.813,81.814 375.351,82.038 374.091 C 82.262 372.831,82.767 371.350,83.160 370.800 C 83.553 370.250,83.997 369.143,84.148 368.341 C 84.298 367.538,84.750 366.458,85.152 365.941 C 85.555 365.423,86.108 364.312,86.382 363.472 C 86.656 362.632,87.120 361.852,87.412 361.740 C 87.705 361.628,88.128 361.009,88.352 360.365 C 89.118 358.170,92.049 355.200,93.451 355.200 C 95.323 355.200,95.499 355.717,95.668 361.720 L 95.824 367.240 98.190 369.407 C 100.965 371.949,102.123 372.244,107.855 371.867 C 111.868 371.604,112.788 372.035,112.807 374.189 C 112.818 375.355,117.625 382.400,118.411 382.400 C 118.564 382.400,119.369 382.940,120.200 383.600 C 121.031 384.260,122.183 384.800,122.761 384.800 C 123.339 384.800,124.529 385.193,125.406 385.673 C 127.559 386.853,135.454 387.008,137.459 385.911 C 138.152 385.532,139.536 385.038,140.536 384.814 C 141.536 384.590,143.020 383.955,143.833 383.403 C 144.646 382.852,145.624 382.400,146.007 382.400 C 146.389 382.400,146.934 382.120,147.218 381.778 C 148.762 379.918,150.210 380.209,150.828 382.504 C 151.891 386.452,155.796 387.801,159.052 385.347 C 161.517 383.489,162.082 382.788,162.658 380.873 C 162.959 379.875,163.457 378.775,163.767 378.429 C 164.076 378.083,164.448 376.900,164.593 375.800 C 164.890 373.558,165.544 371.600,165.996 371.600 C 166.161 371.600,166.504 370.544,166.758 369.253 C 167.012 367.963,167.554 366.603,167.964 366.233 C 168.373 365.862,168.818 365.010,168.952 364.340 C 169.086 363.669,169.647 362.584,170.198 361.929 C 170.749 361.275,171.200 360.484,171.200 360.173 C 171.200 359.861,171.560 359.382,172.000 359.107 C 172.440 358.832,172.800 358.416,172.800 358.182 C 172.800 356.198,177.164 354.439,178.038 356.071 C 178.774 357.447,178.152 364.502,177.076 366.981 C 175.611 370.356,175.759 380.521,177.300 382.353 C 177.905 383.073,178.400 383.810,178.400 383.992 C 178.400 384.173,178.895 384.517,179.500 384.756 C 180.105 384.994,181.230 385.565,182.000 386.024 C 183.867 387.138,188.712 386.929,190.819 385.645 C 191.579 385.182,192.580 384.802,193.045 384.801 C 193.839 384.800,195.283 383.863,198.284 381.403 C 200.307 379.743,202.306 380.084,203.521 382.294 C 204.129 383.399,204.965 384.222,205.927 384.661 C 206.737 385.031,207.734 385.619,208.142 385.967 C 209.334 386.983,214.603 386.798,216.400 385.677 C 217.170 385.196,218.090 384.802,218.444 384.801 C 218.798 384.801,219.878 384.172,220.844 383.404 C 221.810 382.636,222.726 382.006,222.881 382.004 C 223.240 381.999,226.000 379.167,226.000 378.803 C 226.000 378.652,226.434 378.330,226.965 378.089 C 227.496 377.847,228.045 377.287,228.186 376.845 C 228.811 374.875,232.463 375.568,233.199 377.796 C 233.896 379.909,239.190 384.800,240.780 384.800 C 241.138 384.800,242.144 385.182,243.015 385.648 C 245.152 386.792,252.430 386.981,254.000 385.933 C 254.550 385.565,255.802 385.054,256.782 384.795 C 258.554 384.328,259.719 383.603,262.083 381.500 C 262.762 380.895,263.465 380.400,263.644 380.400 C 263.823 380.400,264.313 380.031,264.734 379.579 L 265.498 378.758 267.381 380.029 C 268.416 380.728,269.358 381.547,269.474 381.850 C 269.591 382.152,269.923 382.400,270.212 382.400 C 270.502 382.400,271.265 382.843,271.909 383.385 C 272.553 383.926,273.961 384.566,275.040 384.807 C 276.118 385.048,277.450 385.543,278.000 385.909 C 279.553 386.940,288.404 386.886,290.600 385.832 C 291.480 385.409,292.943 384.923,293.851 384.753 C 294.759 384.582,296.179 383.983,297.007 383.421 C 297.834 382.860,298.840 382.400,299.242 382.400 C 299.643 382.400,300.153 382.062,300.374 381.648 C 301.585 379.385,305.770 379.071,307.685 381.100 C 309.764 383.301,311.986 384.800,313.170 384.800 C 313.743 384.800,314.929 385.193,315.806 385.673 C 317.972 386.860,325.854 387.008,327.880 385.900 C 328.584 385.515,330.114 385.000,331.280 384.756 C 332.446 384.512,333.760 383.994,334.200 383.606 C 334.640 383.217,335.675 382.682,336.500 382.418 C 337.325 382.154,338.000 381.777,338.000 381.579 C 338.000 381.382,338.495 380.961,339.100 380.645 C 339.705 380.328,341.501 378.793,343.092 377.235 C 344.682 375.676,346.137 374.400,346.325 374.400 C 346.785 374.400,349.069 377.275,349.687 378.632 C 350.130 379.604,351.439 381.017,354.064 383.356 C 354.530 383.772,355.731 384.358,356.732 384.660 C 357.733 384.961,359.013 385.511,359.576 385.882 C 361.263 386.993,368.501 386.871,370.594 385.695 C 371.471 385.203,372.571 384.800,373.039 384.800 C 373.507 384.800,374.569 384.260,375.400 383.600 C 376.231 382.940,377.083 382.400,377.295 382.400 C 377.506 382.400,378.177 381.905,378.785 381.300 C 379.393 380.695,380.985 379.210,382.323 378.000 C 383.661 376.790,384.766 375.646,384.778 375.458 C 384.790 375.270,385.250 374.581,385.800 373.927 C 387.216 372.244,387.320 366.619,385.943 366.182 C 384.955 365.868,382.000 366.730,382.000 367.332 C 382.000 367.854,374.859 374.774,373.804 375.274 C 373.362 375.484,372.370 376.003,371.600 376.427 C 369.955 377.334,364.730 377.503,363.368 376.694 C 359.284 374.269,357.720 372.105,357.168 368.114 C 356.962 366.622,356.570 364.860,356.297 364.200 C 355.975 363.424,355.800 360.849,355.800 356.912 C 355.800 348.483,355.049 349.059,366.378 348.800 C 374.771 348.608,375.176 348.562,376.094 347.700 C 376.621 347.205,377.274 346.800,377.546 346.800 C 378.187 346.800,379.200 344.367,379.200 342.827 C 379.200 341.137,378.293 340.800,373.726 340.798 C 370.559 340.796,366.775 340.295,366.806 339.881 C 366.872 338.985,368.104 336.568,368.927 335.718 C 371.089 333.485,371.498 332.979,372.103 331.799 C 372.441 331.139,373.097 330.256,373.559 329.837 C 374.022 329.418,374.400 328.768,374.400 328.392 C 374.400 328.016,374.762 327.248,375.204 326.685 C 375.647 326.123,376.182 324.750,376.394 323.634 C 376.605 322.518,377.098 321.117,377.489 320.521 C 378.678 318.708,378.535 307.870,377.300 306.138 C 376.805 305.444,376.398 304.634,376.397 304.338 C 376.395 304.042,375.735 303.106,374.931 302.257 L 373.469 300.714 369.354 300.866 C 364.772 301.036,365.336 300.751,361.000 305.084 C 357.967 308.114,356.948 309.433,355.963 311.599 C 355.613 312.370,355.028 313.247,354.663 313.549 C 354.299 313.851,354.000 314.491,354.000 314.971 C 354.000 315.452,353.569 316.429,353.042 317.143 C 352.516 317.856,351.960 319.286,351.807 320.320 C 351.655 321.354,351.207 322.740,350.812 323.400 C 350.417 324.060,349.898 325.749,349.657 327.154 C 349.417 328.559,348.949 330.124,348.617 330.631 C 348.284 331.138,347.910 332.598,347.785 333.876 C 347.351 338.317,347.218 338.733,345.939 339.644 C 345.032 340.290,343.811 340.602,341.303 340.831 C 337.124 341.212,337.022 341.310,337.022 344.987 C 337.022 348.626,336.824 348.440,340.974 348.699 C 345.480 348.980,345.369 348.799,345.541 356.168 C 345.714 363.630,345.388 365.084,343.199 366.601 C 342.320 367.210,341.600 367.841,341.600 368.003 C 341.600 368.916,335.615 373.927,333.200 375.037 C 332.430 375.390,331.494 375.952,331.119 376.284 C 330.140 377.155,324.256 377.723,321.245 377.238 C 318.310 376.766,315.402 374.632,314.963 372.629 C 314.815 371.953,314.357 370.773,313.947 370.006 C 312.968 368.179,312.897 362.389,313.831 360.600 C 314.176 359.940,314.613 358.584,314.802 357.587 C 315.124 355.890,317.767 351.200,318.402 351.200 C 318.559 351.200,319.306 350.781,320.061 350.268 C 322.212 348.809,323.059 348.733,324.420 349.878 C 326.343 351.496,326.508 352.089,325.969 355.433 C 325.041 361.183,327.935 363.227,331.620 359.424 C 334.146 356.818,334.128 356.892,334.034 349.514 C 333.999 346.717,334.086 346.895,331.287 343.892 C 328.778 341.200,320.100 340.203,317.436 342.300 C 316.807 342.795,315.985 343.200,315.610 343.200 C 314.183 343.200,307.200 349.379,307.200 350.642 C 307.200 350.924,306.877 351.390,306.483 351.677 C 306.088 351.965,305.544 352.957,305.272 353.882 C 305.001 354.807,304.506 355.837,304.173 356.170 C 303.483 356.860,302.808 361.863,302.803 366.324 C 302.800 369.446,301.144 372.390,299.015 373.055 C 298.567 373.195,297.691 373.735,297.069 374.255 C 296.447 374.775,295.707 375.200,295.423 375.200 C 295.140 375.200,294.440 375.568,293.869 376.017 C 290.351 378.785,280.294 378.358,277.203 375.310 L 275.400 373.532 276.522 372.566 C 277.140 372.035,277.883 371.600,278.173 371.600 C 278.464 371.600,278.918 371.340,279.182 371.022 C 279.446 370.704,280.683 370.235,281.931 369.980 C 283.179 369.725,284.470 369.281,284.800 368.992 C 285.130 368.703,286.210 368.148,287.200 367.758 C 288.190 367.368,289.235 366.723,289.523 366.325 C 289.810 365.926,290.221 365.600,290.436 365.600 C 290.877 365.600,293.600 362.976,293.600 362.551 C 293.600 362.400,294.060 361.672,294.623 360.935 C 296.357 358.662,296.958 350.572,295.649 347.129 C 293.671 341.927,284.112 339.356,277.940 342.366 C 276.550 343.045,275.191 343.600,274.920 343.600 C 274.398 343.600,273.690 344.178,270.800 346.959 C 268.404 349.266,267.200 350.752,267.200 351.403 C 267.200 351.698,266.776 352.447,266.258 353.069 C 265.739 353.691,265.183 354.920,265.021 355.800 C 264.860 356.680,264.360 358.207,263.911 359.194 C 263.267 360.609,263.072 361.971,262.988 365.643 C 262.930 368.204,262.700 370.640,262.476 371.057 C 262.003 371.941,258.232 375.200,257.682 375.200 C 257.476 375.200,256.818 375.585,256.220 376.056 C 253.898 377.882,247.962 377.578,245.240 375.494 C 241.380 372.538,240.218 368.118,240.206 356.342 C 240.198 348.300,239.603 348.801,249.162 348.796 C 258.837 348.790,259.128 348.733,261.591 346.372 C 265.656 342.474,264.407 340.800,257.434 340.800 C 250.808 340.800,249.126 339.309,252.439 336.371 C 253.078 335.805,253.600 335.134,253.600 334.880 C 253.600 334.626,254.050 334.124,254.600 333.763 C 255.150 333.403,255.600 332.897,255.600 332.639 C 255.600 332.381,256.133 331.547,256.784 330.785 C 257.435 330.023,257.975 329.199,257.984 328.954 C 257.993 328.709,258.331 328.079,258.736 327.554 C 259.142 327.029,259.693 325.700,259.963 324.600 C 260.232 323.500,260.755 322.150,261.126 321.600 C 262.301 319.856,262.117 306.402,260.900 305.106 C 260.405 304.580,260.000 303.970,260.000 303.753 C 260.000 303.535,259.384 302.760,258.632 302.031 L 257.263 300.704 253.302 300.864 C 248.801 301.044,248.548 301.172,244.343 305.386 C 241.954 307.779,241.516 308.393,240.017 311.447 C 239.573 312.353,238.957 313.304,238.649 313.559 C 238.341 313.815,237.893 314.804,237.653 315.756 C 237.413 316.709,236.953 317.707,236.630 317.975 C 236.308 318.242,235.838 319.483,235.586 320.731 C 235.334 321.979,234.804 323.561,234.409 324.246 C 234.014 324.932,233.478 326.749,233.219 328.285 C 232.960 329.821,232.501 331.555,232.199 332.137 C 231.897 332.719,231.537 334.052,231.399 335.098 C 230.753 340.004,230.466 340.277,225.405 340.799 C 221.045 341.249,220.800 341.450,220.800 344.573 C 220.800 348.061,221.160 348.407,225.143 348.749 C 229.354 349.111,229.187 348.750,229.194 357.513 L 229.200 364.827 227.788 366.313 C 227.011 367.131,226.021 368.166,225.588 368.614 C 225.155 369.062,224.800 369.566,224.800 369.734 C 224.800 370.150,220.021 374.736,218.167 376.100 C 215.482 378.075,212.150 376.932,211.355 373.764 C 210.828 371.664,211.407 361.869,212.146 360.393 C 212.529 359.627,213.091 357.020,213.395 354.600 C 213.698 352.180,214.229 349.531,214.573 348.713 C 216.446 344.268,215.205 341.494,211.242 341.270 C 207.876 341.080,206.662 341.666,205.727 343.931 C 205.393 344.739,204.883 345.670,204.593 346.000 C 204.303 346.330,203.872 348.002,203.635 349.717 C 203.397 351.431,202.922 353.377,202.578 354.043 C 202.199 354.776,201.806 357.171,201.580 360.126 C 200.874 369.345,199.830 371.379,193.375 376.100 C 188.904 379.370,184.576 373.939,187.011 368.113 C 187.347 367.309,187.794 364.988,188.005 362.956 C 188.215 360.924,188.758 358.321,189.210 357.174 C 189.885 355.461,190.048 354.060,190.117 349.371 L 190.200 343.656 188.800 342.390 C 187.323 341.054,181.202 340.702,180.456 341.910 C 180.303 342.157,179.461 342.684,178.584 343.080 C 177.707 343.476,176.632 344.122,176.195 344.516 C 172.901 347.483,172.000 348.386,172.000 348.723 C 172.000 348.935,171.550 349.403,171.000 349.763 C 170.450 350.124,170.000 350.660,170.000 350.954 C 170.000 351.249,169.460 352.169,168.800 353.000 C 168.140 353.831,167.600 354.727,167.600 354.993 C 167.600 355.259,167.261 355.783,166.846 356.158 C 166.432 356.533,165.871 357.632,165.600 358.600 C 165.051 360.560,164.314 361.371,162.742 361.743 C 161.255 362.096,161.159 361.552,161.821 356.532 C 162.136 354.149,162.395 352.167,162.397 352.127 C 162.399 352.087,163.384 351.007,164.586 349.727 C 167.455 346.672,168.385 345.587,171.213 342.000 C 172.514 340.350,173.943 338.566,174.389 338.037 C 174.835 337.507,175.200 336.860,175.200 336.599 C 175.200 336.338,175.547 335.810,175.972 335.426 C 176.396 335.042,177.040 334.103,177.402 333.339 C 177.764 332.576,178.317 331.853,178.630 331.733 C 178.944 331.613,179.200 331.289,179.200 331.013 C 179.200 330.737,179.675 329.812,180.256 328.956 C 180.836 328.101,181.495 326.861,181.720 326.200 C 181.944 325.540,182.439 324.597,182.819 324.103 C 183.199 323.610,183.635 322.530,183.788 321.703 C 183.942 320.877,184.427 319.614,184.867 318.898 C 186.166 316.785,186.933 307.681,186.215 302.903 C 185.145 295.776,180.475 292.678,173.568 294.513 M177.400 303.261 C 178.670 304.475,178.608 316.310,177.320 318.488 C 176.836 319.307,176.325 320.657,176.183 321.488 C 176.041 322.320,175.605 323.457,175.213 324.016 C 174.821 324.574,174.370 325.628,174.210 326.357 C 174.049 327.085,173.622 327.980,173.259 328.344 C 172.897 328.708,172.258 329.770,171.839 330.703 C 171.421 331.636,170.928 332.400,170.745 332.400 C 170.561 332.400,170.137 332.985,169.802 333.700 C 168.868 335.693,166.846 338.348,165.873 338.859 C 165.393 339.111,164.850 339.570,164.668 339.881 C 163.598 341.695,162.703 337.714,163.643 335.326 C 163.887 334.707,164.340 332.070,164.650 329.468 C 164.960 326.865,165.484 324.210,165.816 323.569 C 166.148 322.927,166.594 321.021,166.809 319.333 C 167.023 317.644,167.469 315.849,167.801 315.343 C 168.132 314.837,168.597 313.473,168.834 312.311 C 169.070 311.150,169.587 309.743,169.982 309.184 C 170.376 308.626,170.827 307.589,170.982 306.882 C 171.243 305.693,171.879 304.729,173.706 302.752 C 174.542 301.847,176.152 302.069,177.400 303.261 M253.609 309.902 C 254.753 311.357,254.772 319.101,253.637 321.327 C 253.217 322.150,252.659 323.719,252.397 324.813 C 252.134 325.907,251.755 326.904,251.554 327.028 C 251.353 327.153,250.808 328.007,250.342 328.927 C 249.877 329.847,249.249 330.744,248.948 330.920 C 248.647 331.096,248.400 331.459,248.400 331.727 C 248.400 332.697,245.096 336.215,243.551 336.889 L 241.972 337.579 241.570 336.520 C 241.152 335.422,241.308 334.133,242.188 331.400 C 242.472 330.520,242.829 328.430,242.981 326.755 C 243.133 325.080,243.537 323.190,243.878 322.555 C 244.219 321.920,244.742 320.159,245.040 318.641 C 245.338 317.124,245.834 315.594,246.141 315.241 C 246.448 314.889,246.901 313.970,247.148 313.200 C 248.393 309.319,251.788 307.587,253.609 309.902 M369.285 309.496 C 371.103 311.091,371.330 317.937,369.667 320.994 C 369.190 321.871,368.797 323.041,368.794 323.594 C 368.791 324.147,368.527 325.050,368.208 325.600 C 367.888 326.150,367.248 327.410,366.785 328.400 C 366.322 329.390,365.686 330.344,365.371 330.520 C 365.057 330.696,364.800 331.056,364.799 331.320 C 364.799 331.584,364.079 332.610,363.200 333.600 C 362.321 334.590,361.601 335.502,361.601 335.626 C 361.600 335.751,360.890 336.252,360.021 336.740 C 357.486 338.165,356.804 335.536,358.363 330.342 C 358.783 328.944,359.245 326.604,359.390 325.143 C 359.536 323.682,359.987 321.867,360.393 321.109 C 360.799 320.351,361.253 318.847,361.402 317.766 C 361.550 316.684,362.008 315.323,362.418 314.740 C 362.829 314.157,363.271 313.254,363.402 312.734 C 364.170 309.674,367.438 307.875,369.285 309.496 M210.200 319.715 C 204.978 321.297,203.793 329.131,208.400 331.613 C 209.747 332.339,215.807 332.365,217.496 331.653 C 220.800 330.260,223.189 323.279,220.800 322.000 C 220.360 321.765,220.000 321.317,220.000 321.005 C 220.000 319.740,213.112 318.834,210.200 319.715 M46.861 349.774 C 47.395 350.947,46.726 356.209,45.820 357.962 C 45.501 358.577,45.065 360.804,44.849 362.911 C 44.634 365.017,44.188 367.159,43.858 367.670 C 43.529 368.182,43.139 369.320,42.992 370.200 C 42.845 371.080,42.424 372.250,42.057 372.800 C 41.689 373.350,41.121 374.324,40.794 374.965 C 38.728 379.016,32.127 378.497,31.167 374.208 C 30.443 370.975,31.165 362.386,32.288 360.864 C 32.720 360.279,33.296 359.125,33.568 358.300 C 33.840 357.475,34.223 356.800,34.421 356.800 C 34.618 356.800,35.036 356.305,35.349 355.700 C 36.136 354.178,39.356 350.931,40.410 350.597 C 40.888 350.445,41.621 349.979,42.039 349.561 C 43.236 348.364,46.280 348.499,46.861 349.774 M286.300 350.933 C 288.316 352.870,288.677 355.431,287.200 357.309 C 286.760 357.869,286.400 358.531,286.400 358.782 C 286.400 359.429,284.586 361.042,281.856 362.824 C 277.689 365.544,273.125 365.310,273.755 362.409 C 273.875 361.854,274.223 360.140,274.528 358.600 C 276.075 350.792,282.082 346.879,286.300 350.933 " stroke="none" fill="#154e87" fill-rule="evenodd"></path><path id="path1" d="M331.800 8.403 C 330.260 9.256,328.460 10.244,327.800 10.598 C 327.140 10.952,325.610 11.850,324.400 12.592 C 322.358 13.845,316.581 17.184,313.800 18.719 C 312.381 19.502,310.267 20.772,308.610 21.836 C 307.956 22.256,305.886 23.452,304.010 24.494 C 300.290 26.561,297.657 28.053,295.000 29.600 C 292.363 31.136,289.244 32.935,288.064 33.601 C 287.479 33.931,286.460 34.570,285.800 35.020 C 285.140 35.471,284.150 36.067,283.600 36.346 C 283.050 36.625,281.700 37.381,280.600 38.025 C 279.500 38.670,277.842 39.563,276.917 40.010 C 275.991 40.457,275.128 40.993,275.000 41.200 C 274.872 41.407,274.009 41.951,273.083 42.409 C 272.158 42.866,270.500 43.764,269.400 44.405 C 268.300 45.046,266.526 46.072,265.459 46.685 C 261.033 49.226,258.594 50.667,254.800 52.983 C 253.590 53.721,251.168 55.078,249.418 55.998 C 247.668 56.918,245.799 58.015,245.264 58.435 C 244.730 58.856,244.071 59.200,243.800 59.200 C 243.529 59.200,242.811 59.591,242.203 60.069 C 241.595 60.547,240.446 61.290,239.649 61.720 C 236.305 63.524,235.701 63.872,234.579 64.636 C 233.930 65.078,232.950 65.667,232.400 65.946 C 231.468 66.419,230.097 67.200,225.600 69.819 C 224.610 70.395,222.900 71.391,221.800 72.032 C 220.700 72.673,219.042 73.563,218.117 74.010 C 217.191 74.457,216.328 74.993,216.200 75.200 C 216.072 75.407,215.209 75.951,214.283 76.409 C 212.093 77.490,210.328 78.487,208.928 79.434 C 208.308 79.854,207.350 80.426,206.800 80.707 C 206.250 80.987,204.810 81.838,203.600 82.598 C 202.390 83.357,200.680 84.353,199.800 84.810 C 198.920 85.267,197.300 86.163,196.200 86.800 C 195.100 87.437,193.455 88.313,192.544 88.746 C 191.633 89.179,190.771 89.724,190.627 89.956 C 190.484 90.187,189.609 90.751,188.683 91.209 C 186.687 92.194,185.018 93.145,183.472 94.176 C 182.202 95.023,180.472 96.012,178.395 97.079 C 177.622 97.475,176.452 98.176,175.795 98.635 C 175.138 99.094,174.330 99.587,174.000 99.731 C 173.670 99.875,172.230 100.703,170.800 101.571 C 169.370 102.440,167.480 103.522,166.600 103.977 C 165.720 104.431,164.100 105.333,163.000 105.980 C 161.900 106.627,160.427 107.434,159.727 107.772 C 159.027 108.111,158.333 108.586,158.183 108.827 C 158.034 109.069,157.167 109.625,156.256 110.063 C 153.737 111.274,151.229 112.677,150.525 113.269 C 150.177 113.561,149.211 114.160,148.377 114.600 C 146.812 115.426,144.187 116.937,141.400 118.616 C 140.520 119.146,138.900 120.034,137.800 120.589 C 136.700 121.144,134.900 122.164,133.800 122.857 C 130.931 124.663,128.843 125.859,126.917 126.800 C 125.991 127.253,125.116 127.813,124.973 128.044 C 124.829 128.276,123.967 128.813,123.056 129.236 C 122.145 129.660,120.500 130.571,119.400 131.261 C 117.125 132.688,115.972 133.354,110.668 136.304 C 105.661 139.089,104.000 140.907,104.000 143.600 C 104.000 147.556,106.793 149.418,117.200 152.402 C 119.939 153.187,122.122 153.909,126.400 155.445 C 127.830 155.958,129.810 156.581,130.800 156.828 C 131.790 157.076,132.784 157.429,133.009 157.613 C 133.234 157.796,134.674 158.309,136.209 158.752 C 140.390 159.957,144.002 161.176,145.857 162.006 C 146.768 162.414,148.208 162.874,149.057 163.028 C 149.905 163.182,151.230 163.622,152.000 164.005 C 152.770 164.388,154.350 164.903,155.511 165.149 C 156.673 165.395,158.023 165.857,158.511 166.176 C 159.000 166.495,160.292 166.955,161.382 167.198 C 162.472 167.441,163.912 167.889,164.582 168.193 C 165.252 168.497,166.957 169.033,168.371 169.383 C 169.785 169.733,171.135 170.178,171.371 170.371 C 171.607 170.564,172.585 170.932,173.544 171.188 C 175.665 171.755,177.058 173.174,177.641 175.361 C 177.882 176.262,178.419 177.810,178.836 178.800 C 179.253 179.790,179.779 181.466,180.004 182.525 C 180.230 183.584,180.671 184.844,180.985 185.325 C 181.299 185.806,181.755 187.092,181.998 188.182 C 182.241 189.272,182.700 190.712,183.018 191.382 C 183.336 192.052,183.941 193.770,184.363 195.200 C 185.117 197.756,185.606 199.225,187.426 204.400 C 187.929 205.830,188.603 207.810,188.924 208.800 C 189.245 209.790,189.699 211.140,189.934 211.800 C 190.809 214.269,192.059 218.266,192.564 220.209 C 192.851 221.314,193.360 222.754,193.694 223.409 C 194.029 224.064,194.504 225.550,194.750 226.711 C 194.995 227.873,195.457 229.223,195.776 229.711 C 196.095 230.200,196.552 231.478,196.791 232.551 C 197.030 233.623,197.560 235.243,197.968 236.151 C 198.376 237.058,198.839 238.430,198.997 239.200 C 199.785 243.031,203.851 247.255,207.001 247.517 L 209.227 247.701 211.513 245.312 C 213.876 242.843,216.899 239.093,218.070 237.176 C 218.439 236.573,219.015 235.746,219.351 235.339 C 222.571 231.442,224.400 229.082,224.400 228.822 C 224.400 228.539,225.429 227.102,227.567 224.400 C 229.147 222.404,230.632 220.422,232.188 218.234 C 233.061 217.005,233.871 215.992,233.988 215.981 C 234.105 215.971,234.830 215.062,235.600 213.962 C 236.997 211.965,239.140 209.047,243.938 202.606 C 246.732 198.855,247.421 198.542,249.753 199.957 C 250.439 200.373,251.604 200.842,252.342 200.998 C 253.641 201.273,255.737 202.192,259.700 204.225 C 260.745 204.761,261.825 205.201,262.100 205.202 C 262.375 205.202,263.680 205.742,265.000 206.400 C 266.320 207.058,267.649 207.598,267.953 207.598 C 268.257 207.599,269.067 207.938,269.753 208.351 C 270.439 208.765,271.720 209.331,272.600 209.610 C 273.480 209.888,274.629 210.450,275.154 210.858 C 275.679 211.266,276.399 211.601,276.754 211.602 C 277.109 211.602,278.480 212.142,279.800 212.800 C 281.120 213.458,282.449 213.998,282.753 213.998 C 283.057 213.999,283.867 214.338,284.553 214.751 C 285.239 215.165,286.520 215.732,287.400 216.012 C 288.280 216.292,289.360 216.744,289.800 217.016 C 290.240 217.288,291.320 217.738,292.200 218.016 C 293.080 218.294,294.171 218.762,294.624 219.057 C 300.477 222.861,306.278 220.300,306.984 213.600 C 307.135 212.170,307.516 209.920,307.832 208.600 C 308.147 207.280,308.670 204.171,308.994 201.692 C 309.318 199.212,309.847 196.242,310.169 195.092 C 310.492 193.941,310.954 191.290,311.196 189.200 C 311.437 187.110,311.900 184.502,312.224 183.404 C 312.549 182.306,312.997 179.792,313.221 177.816 C 313.445 175.841,313.966 172.869,314.379 171.213 C 314.793 169.556,315.248 167.030,315.391 165.600 C 315.534 164.170,315.985 161.650,316.393 160.000 C 316.801 158.350,317.337 155.290,317.585 153.200 C 317.832 151.110,318.300 148.502,318.624 147.404 C 318.949 146.306,319.395 143.786,319.615 141.804 C 319.836 139.822,320.287 137.259,320.617 136.108 C 320.947 134.958,321.481 132.018,321.803 129.574 C 322.126 127.131,322.645 124.271,322.957 123.220 C 323.269 122.168,323.649 120.069,323.801 118.554 C 323.954 117.039,324.415 114.180,324.826 112.200 C 325.238 110.220,325.755 107.116,325.976 105.302 C 326.197 103.488,326.649 100.954,326.982 99.670 C 327.314 98.387,327.846 95.371,328.163 92.968 C 328.480 90.566,328.926 88.111,329.154 87.513 C 329.383 86.916,329.849 84.306,330.190 81.713 C 330.530 79.121,331.059 76.174,331.366 75.166 C 331.672 74.157,332.047 72.087,332.198 70.566 C 332.350 69.044,332.891 65.910,333.400 63.600 C 333.909 61.290,334.450 58.156,334.602 56.634 C 334.753 55.113,335.128 53.043,335.434 52.034 C 335.741 51.026,336.265 48.130,336.600 45.600 C 336.935 43.070,337.459 40.174,337.766 39.166 C 338.072 38.157,338.447 36.087,338.598 34.566 C 338.750 33.044,339.290 29.910,339.797 27.600 C 340.305 25.290,340.841 22.241,340.988 20.825 C 341.136 19.409,341.514 17.753,341.828 17.145 C 345.311 10.410,338.655 4.608,331.800 8.403 M300.370 40.773 C 301.216 41.309,303.227 39.254,239.982 102.500 C 187.316 155.167,181.562 160.800,180.430 160.800 C 179.740 160.800,178.146 160.371,176.888 159.846 C 175.630 159.321,173.970 158.759,173.200 158.597 C 172.430 158.435,171.162 157.979,170.381 157.585 C 169.601 157.190,168.251 156.737,167.381 156.579 C 166.512 156.421,165.170 155.978,164.400 155.595 C 163.630 155.212,162.050 154.697,160.889 154.451 C 159.727 154.205,158.377 153.751,157.889 153.442 C 157.400 153.132,156.046 152.682,154.880 152.440 C 153.714 152.198,152.274 151.750,151.680 151.445 C 151.086 151.140,149.443 150.596,148.029 150.236 C 146.615 149.875,145.265 149.421,145.029 149.226 C 144.793 149.031,143.430 148.569,142.000 148.200 C 140.570 147.831,139.216 147.377,138.991 147.191 C 138.766 147.005,137.326 146.491,135.791 146.048 C 132.873 145.207,128.420 143.768,126.929 143.184 C 124.562 142.258,126.375 140.542,134.000 136.492 C 135.870 135.499,137.829 134.352,138.354 133.943 C 138.879 133.534,139.532 133.200,139.805 133.200 C 140.078 133.200,140.547 132.905,140.845 132.545 C 141.144 132.185,142.111 131.542,142.994 131.116 C 145.367 129.971,147.966 128.526,148.600 128.000 C 148.906 127.746,149.886 127.147,150.777 126.669 C 151.668 126.191,153.936 124.900,155.817 123.800 C 157.699 122.700,160.084 121.306,161.119 120.702 C 162.154 120.097,163.720 119.230,164.600 118.774 C 165.480 118.318,167.190 117.332,168.400 116.583 C 169.610 115.834,171.345 114.871,172.256 114.444 C 173.167 114.016,174.029 113.476,174.173 113.244 C 174.316 113.013,175.191 112.458,176.117 112.013 C 177.042 111.568,178.790 110.571,180.000 109.799 C 181.210 109.027,182.740 108.117,183.400 107.776 C 184.060 107.436,185.500 106.627,186.600 105.980 C 187.700 105.333,189.358 104.437,190.283 103.990 C 191.209 103.543,192.084 102.987,192.227 102.756 C 192.371 102.524,193.233 101.984,194.144 101.556 C 195.055 101.129,196.790 100.166,198.000 99.417 C 199.210 98.668,200.920 97.680,201.800 97.222 C 202.680 96.763,204.390 95.770,205.600 95.015 C 206.810 94.260,208.340 93.359,209.000 93.014 C 209.660 92.668,211.190 91.763,212.400 91.003 C 213.610 90.243,215.320 89.254,216.200 88.804 C 217.080 88.355,218.700 87.460,219.800 86.816 C 220.900 86.171,222.250 85.408,222.800 85.119 C 223.350 84.831,224.520 84.140,225.400 83.585 C 227.555 82.226,230.590 80.448,234.400 78.314 C 235.170 77.882,236.700 77.012,237.800 76.379 C 238.900 75.747,240.674 74.728,241.741 74.115 C 242.809 73.502,244.456 72.550,245.400 72.000 C 246.344 71.450,247.991 70.500,249.059 69.889 C 250.126 69.277,251.720 68.357,252.600 67.842 C 253.480 67.328,255.060 66.436,256.111 65.859 C 257.162 65.282,258.242 64.619,258.511 64.384 C 258.780 64.149,259.569 63.652,260.264 63.279 C 260.960 62.905,262.464 62.060,263.606 61.400 C 267.245 59.297,269.062 58.253,273.002 56.000 C 275.117 54.790,277.513 53.396,278.324 52.901 C 279.136 52.407,280.558 51.637,281.483 51.190 C 282.409 50.743,283.284 50.187,283.427 49.956 C 283.571 49.724,284.433 49.184,285.344 48.756 C 286.255 48.329,287.990 47.363,289.200 46.611 C 291.601 45.118,293.141 44.241,296.200 42.625 C 297.300 42.044,298.464 41.306,298.786 40.984 C 299.466 40.306,299.603 40.287,300.370 40.773 M324.243 44.568 C 324.550 45.367,323.678 52.579,322.971 55.092 C 322.647 56.242,322.120 59.171,321.800 61.600 C 321.480 64.029,320.947 66.958,320.617 68.108 C 320.287 69.259,319.836 71.822,319.615 73.804 C 319.395 75.786,318.949 78.306,318.624 79.404 C 318.300 80.502,317.837 83.110,317.596 85.200 C 317.354 87.290,316.892 89.941,316.569 91.092 C 316.247 92.242,315.720 95.171,315.400 97.600 C 315.080 100.029,314.547 102.958,314.217 104.108 C 313.887 105.259,313.436 107.822,313.215 109.804 C 312.995 111.786,312.549 114.306,312.224 115.404 C 311.900 116.502,311.436 119.110,311.192 121.200 C 310.949 123.290,310.420 126.260,310.017 127.800 C 309.613 129.340,309.071 132.468,308.813 134.750 C 308.554 137.033,308.162 139.373,307.941 139.950 C 307.721 140.528,307.283 143.070,306.969 145.600 C 306.654 148.130,306.138 151.010,305.821 152.000 C 305.504 152.990,305.050 155.510,304.811 157.600 C 304.573 159.690,304.123 162.300,303.810 163.400 C 303.497 164.500,303.043 167.020,302.800 169.000 C 302.558 170.980,302.022 173.950,301.610 175.600 C 301.197 177.250,300.742 179.860,300.597 181.400 C 300.452 182.940,300.000 185.460,299.592 187.000 C 299.184 188.540,298.653 191.480,298.413 193.534 C 297.988 197.158,296.700 203.240,295.956 205.131 C 295.505 206.276,294.225 206.106,290.600 204.419 C 289.280 203.804,287.528 203.086,286.706 202.822 C 285.884 202.558,285.111 202.179,284.988 201.981 C 284.866 201.783,283.918 201.357,282.883 201.034 C 280.577 200.315,276.087 198.467,275.000 197.788 C 274.560 197.514,273.484 197.062,272.610 196.784 C 271.735 196.506,270.475 195.946,269.810 195.541 C 269.144 195.135,268.364 194.802,268.075 194.801 C 267.786 194.801,266.346 194.243,264.875 193.562 C 263.404 192.881,261.300 191.906,260.200 191.395 C 259.100 190.883,257.762 190.338,257.228 190.183 C 256.693 190.027,255.703 189.563,255.028 189.152 C 254.352 188.740,253.564 188.402,253.275 188.401 C 252.986 188.401,251.546 187.844,250.075 187.165 C 248.604 186.486,246.680 185.598,245.800 185.193 C 244.920 184.787,243.660 184.327,243.000 184.169 C 242.340 184.012,241.339 183.562,240.776 183.168 C 240.212 182.775,239.222 182.330,238.576 182.179 C 237.929 182.029,236.680 181.498,235.800 181.001 C 234.920 180.504,233.625 179.973,232.923 179.822 C 231.318 179.476,228.400 177.393,228.400 176.593 C 228.400 176.043,230.053 173.513,232.912 169.688 C 233.524 168.870,234.330 167.750,234.704 167.200 C 235.077 166.650,236.200 165.120,237.200 163.800 C 239.004 161.418,239.965 160.067,241.290 158.050 C 243.201 155.141,245.490 151.929,247.408 149.465 C 248.292 148.329,249.876 146.140,250.927 144.600 C 251.978 143.060,253.376 141.080,254.033 140.200 C 254.690 139.320,255.665 137.970,256.200 137.200 C 256.735 136.430,257.712 135.080,258.371 134.200 C 259.030 133.320,259.874 132.060,260.246 131.400 C 260.821 130.382,262.016 128.741,263.800 126.522 C 264.020 126.248,264.830 125.102,265.600 123.974 C 266.370 122.846,267.724 120.996,268.608 119.862 C 269.492 118.728,271.065 116.540,272.103 115.000 C 273.141 113.460,274.526 111.480,275.180 110.600 C 275.834 109.720,276.669 108.460,277.036 107.800 C 277.403 107.140,278.462 105.700,279.389 104.600 C 280.317 103.500,281.311 102.150,281.597 101.600 C 281.884 101.050,282.497 100.138,282.959 99.574 C 283.422 99.010,284.160 98.043,284.600 97.425 C 285.040 96.806,286.064 95.378,286.876 94.250 C 287.689 93.123,288.769 91.597,289.276 90.860 C 289.784 90.122,290.505 89.187,290.879 88.781 C 291.252 88.375,291.844 87.538,292.194 86.921 C 292.544 86.305,293.370 85.080,294.029 84.200 C 295.463 82.285,297.037 80.044,298.400 77.975 C 298.950 77.141,300.252 75.320,301.294 73.929 C 302.336 72.538,303.774 70.590,304.491 69.600 C 305.208 68.610,305.887 67.710,306.001 67.600 C 306.114 67.490,307.105 66.075,308.203 64.457 C 309.301 62.838,310.606 60.948,311.101 60.257 C 313.349 57.124,314.099 56.095,315.223 54.600 C 316.855 52.432,318.436 50.170,319.400 48.625 C 321.788 44.798,323.713 43.186,324.243 44.568 M283.398 78.100 C 283.251 78.815,282.787 79.647,282.366 79.949 C 281.945 80.251,281.600 80.746,281.600 81.049 C 281.600 81.352,281.285 81.920,280.900 82.312 C 280.515 82.703,279.338 84.278,278.284 85.812 C 276.221 88.813,273.558 92.551,271.004 96.027 C 270.127 97.222,268.662 99.321,267.749 100.691 C 266.837 102.060,265.375 104.040,264.501 105.091 C 263.626 106.141,262.609 107.540,262.240 108.200 C 261.871 108.860,261.034 110.120,260.380 111.000 C 259.726 111.880,258.368 113.770,257.362 115.200 C 256.356 116.630,255.054 118.451,254.467 119.248 C 251.274 123.581,248.397 127.601,246.800 129.960 C 244.891 132.781,242.767 135.668,242.358 136.000 C 242.223 136.110,241.813 136.740,241.448 137.400 C 241.083 138.060,240.165 139.410,239.408 140.400 C 238.651 141.390,237.278 143.280,236.355 144.600 C 235.433 145.920,234.301 147.483,233.839 148.072 C 233.378 148.662,232.550 149.790,232.000 150.579 C 231.450 151.368,230.010 153.346,228.800 154.975 C 227.590 156.604,225.923 158.986,225.095 160.269 C 220.554 167.302,216.347 172.688,213.776 174.759 C 212.477 175.805,211.879 176.639,211.593 177.800 C 211.376 178.680,210.933 180.303,210.608 181.407 C 210.283 182.511,209.821 184.851,209.581 186.607 C 209.340 188.363,208.796 191.139,208.372 192.775 C 207.947 194.412,207.600 196.327,207.600 197.032 C 207.600 197.736,207.169 199.997,206.642 202.056 C 206.115 204.115,205.466 207.376,205.200 209.302 C 204.934 211.228,204.591 212.882,204.437 212.977 C 203.642 213.469,201.639 210.716,201.186 208.508 C 200.926 207.238,200.458 205.750,200.146 205.200 C 199.834 204.650,199.239 203.030,198.824 201.600 C 198.409 200.170,197.759 198.100,197.379 197.000 C 196.639 194.857,195.294 190.925,194.300 188.000 C 193.964 187.010,193.499 185.660,193.266 185.000 C 192.252 182.124,191.105 178.450,190.643 176.600 C 190.369 175.500,189.932 174.207,189.672 173.726 C 188.145 170.899,185.071 174.249,235.058 124.260 C 260.279 99.037,281.057 78.400,281.231 78.400 C 281.404 78.400,281.660 78.040,281.800 77.600 C 282.268 76.125,283.709 76.576,283.398 78.100 M225.400 189.410 C 226.280 189.952,227.236 190.397,227.525 190.398 C 227.980 190.400,232.242 192.236,234.000 193.188 C 235.435 193.965,234.617 195.580,229.290 202.489 C 227.811 204.407,226.150 206.615,225.600 207.395 C 223.803 209.942,220.019 214.982,219.289 215.800 C 218.896 216.240,218.239 217.128,217.830 217.773 L 217.086 218.946 216.411 218.112 C 215.632 217.151,215.926 213.044,216.988 210.034 C 217.310 209.121,217.782 206.809,218.036 204.897 C 218.291 202.984,218.753 200.701,219.062 199.823 C 219.372 198.945,219.887 196.363,220.207 194.084 C 220.854 189.477,220.923 189.289,222.141 188.797 C 223.408 188.286,223.648 188.331,225.400 189.410 M201.628 197.900 C 201.738 199.073,202.346 199.726,202.372 198.700 C 202.387 198.095,202.220 197.600,202.000 197.600 C 201.780 197.600,201.613 197.735,201.628 197.900 M50.349 247.202 C 45.264 249.889,46.348 254.676,53.007 258.948 C 54.543 259.933,56.250 261.082,56.800 261.501 C 64.484 267.351,72.570 268.963,74.236 264.976 C 76.187 260.306,74.444 257.454,67.646 254.194 C 66.301 253.548,65.910 253.304,62.335 250.870 C 61.309 250.171,60.296 249.600,60.084 249.600 C 59.871 249.600,59.458 249.311,59.165 248.958 C 57.427 246.863,52.752 245.932,50.349 247.202 M161.400 253.629 C 158.879 255.025,157.389 255.773,155.600 256.539 C 149.965 258.952,148.004 262.724,150.384 266.574 C 151.946 269.101,156.067 269.658,159.541 267.812 C 160.563 267.269,162.748 266.185,164.395 265.403 C 171.338 262.107,173.528 257.892,170.146 254.334 C 167.500 251.550,165.450 251.385,161.400 253.629 M93.354 266.748 C 88.590 268.961,90.365 276.697,95.800 277.405 C 96.900 277.549,98.790 277.935,100.000 278.264 C 102.411 278.919,113.881 279.471,116.062 279.037 C 122.144 277.825,122.400 269.148,116.400 267.616 C 115.630 267.419,111.400 267.038,107.000 266.769 C 102.600 266.499,98.100 266.213,97.000 266.131 C 95.616 266.029,94.493 266.219,93.354 266.748 M172.588 293.544 C 170.021 294.668,169.249 295.230,166.646 297.868 C 163.979 300.570,158.400 310.838,158.400 313.043 C 158.400 313.471,158.131 314.206,157.803 314.675 C 157.474 315.144,156.923 316.744,156.578 318.231 C 156.234 319.717,155.692 321.436,155.374 322.050 C 155.056 322.664,154.608 324.526,154.377 326.187 C 154.146 327.847,153.704 329.811,153.395 330.551 C 153.086 331.290,152.559 334.214,152.225 337.047 C 151.890 339.881,151.342 343.460,151.006 345.000 C 150.608 346.828,150.304 351.259,150.133 357.761 L 149.870 367.723 147.483 370.051 C 146.170 371.331,144.760 372.486,144.348 372.616 C 143.937 372.747,143.600 373.026,143.600 373.237 C 143.600 373.447,143.141 373.794,142.580 374.007 C 142.020 374.221,140.607 374.846,139.442 375.398 C 132.520 378.672,125.573 375.560,124.679 368.785 C 123.533 360.109,125.982 353.071,130.854 351.035 C 133.082 350.104,135.001 351.841,134.352 354.200 C 132.874 359.570,134.368 362.268,138.625 361.915 C 146.194 361.287,147.221 347.777,140.149 341.858 C 137.943 340.012,129.873 339.627,126.378 341.201 C 121.537 343.381,117.550 346.854,114.721 351.356 C 113.769 352.871,112.299 356.430,111.947 358.073 C 111.241 361.366,108.983 362.224,107.819 359.641 C 107.209 358.290,107.179 357.799,107.592 355.941 C 107.854 354.764,108.169 351.510,108.291 348.710 L 108.514 343.620 106.904 342.010 C 105.204 340.310,105.050 340.272,100.400 340.386 C 94.780 340.524,83.797 350.493,82.184 356.920 C 82.030 357.533,81.701 357.968,81.452 357.886 C 80.722 357.646,80.704 354.276,81.423 352.362 C 82.802 348.689,83.605 342.458,82.852 341.271 C 81.131 338.556,72.726 340.794,71.576 344.274 C 71.345 344.975,70.989 345.605,70.786 345.674 C 70.584 345.743,70.064 347.420,69.632 349.400 C 69.199 351.380,68.589 354.093,68.275 355.429 C 67.961 356.766,67.573 360.138,67.412 362.925 C 67.049 369.224,65.928 371.096,60.242 374.898 C 55.974 377.753,54.170 372.846,56.374 364.375 C 56.800 362.739,57.269 360.230,57.416 358.800 C 57.564 357.370,58.026 354.627,58.443 352.704 C 59.674 347.021,59.507 345.990,57.046 344.091 C 56.097 343.358,55.378 343.200,52.994 343.200 C 50.158 343.200,50.072 343.170,49.040 341.817 C 47.370 339.628,39.630 339.445,36.813 341.527 C 36.247 341.945,35.338 342.427,34.792 342.598 C 34.247 342.770,33.291 343.335,32.669 343.855 C 32.047 344.375,31.386 344.800,31.200 344.800 C 30.581 344.800,25.416 350.258,24.346 352.043 C 22.506 355.112,20.800 358.493,20.800 359.072 C 20.800 359.380,20.398 360.390,19.906 361.316 C 18.369 364.212,18.547 376.141,20.176 379.428 C 24.964 389.086,34.373 390.434,42.778 382.665 L 45.356 380.282 45.978 381.206 C 50.973 388.631,57.841 389.527,65.074 383.696 C 67.040 382.111,67.889 382.384,69.754 385.202 C 72.701 389.655,79.550 387.655,80.766 381.986 C 81.005 380.872,81.450 379.474,81.754 378.880 C 82.059 378.286,82.527 376.740,82.794 375.444 C 83.061 374.148,83.621 372.528,84.039 371.844 C 84.456 371.160,84.798 370.349,84.799 370.042 C 84.799 369.735,85.430 368.174,86.200 366.573 C 86.970 364.972,87.600 363.496,87.600 363.293 C 87.600 363.090,87.960 362.598,88.400 362.200 C 88.840 361.802,89.200 361.325,89.200 361.141 C 89.200 359.746,93.576 355.693,94.481 356.250 C 94.635 356.346,94.725 358.623,94.681 361.312 C 94.585 367.095,95.045 368.380,98.139 370.974 L 100.079 372.600 105.539 372.722 C 111.364 372.853,112.000 373.077,112.000 374.997 C 112.000 376.722,116.260 382.294,119.036 384.199 C 123.962 387.579,135.109 388.788,139.628 386.432 C 140.506 385.974,141.462 385.600,141.752 385.600 C 142.376 385.600,147.522 382.942,148.431 382.150 C 149.372 381.330,149.528 381.443,150.019 383.300 C 152.283 391.849,163.794 386.979,165.387 376.800 C 165.541 375.810,165.990 374.363,166.384 373.584 C 166.777 372.805,167.232 371.545,167.394 370.784 C 167.667 369.504,168.520 367.581,170.138 364.600 C 170.496 363.940,171.150 362.657,171.592 361.748 C 172.801 359.261,176.267 355.707,176.883 356.323 C 177.545 356.985,177.389 360.907,176.602 363.400 C 175.503 366.880,174.747 375.560,175.236 379.074 C 175.638 381.970,177.614 385.600,178.787 385.600 C 178.947 385.600,179.480 385.949,179.972 386.375 C 181.751 387.919,189.651 387.958,192.167 386.437 C 192.845 386.027,193.850 385.555,194.400 385.389 C 195.391 385.090,196.404 384.406,198.944 382.321 L 200.258 381.242 201.493 381.993 C 202.173 382.407,202.845 383.111,202.987 383.559 C 204.179 387.314,213.320 388.790,218.488 386.063 C 222.241 384.082,222.163 384.144,228.499 378.081 C 230.112 376.537,231.577 376.813,232.406 378.815 C 233.280 380.925,237.054 384.305,240.310 385.893 L 243.400 387.400 248.832 387.400 C 253.888 387.400,254.413 387.327,256.432 386.344 C 257.624 385.763,258.870 385.178,259.200 385.044 C 259.530 384.910,260.610 384.169,261.600 383.397 C 265.863 380.074,265.865 380.073,268.685 382.359 C 271.295 384.473,272.223 385.094,273.200 385.381 C 273.750 385.542,275.010 386.062,276.000 386.537 C 278.752 387.856,290.178 387.828,292.684 386.495 C 293.610 386.003,294.618 385.600,294.924 385.600 C 295.571 385.600,300.135 383.227,302.254 381.789 C 304.087 380.545,305.709 380.512,306.671 381.700 C 310.840 386.847,324.084 389.530,330.028 386.432 C 330.906 385.974,331.842 385.600,332.109 385.600 C 332.945 385.600,338.255 382.823,339.007 381.993 C 339.401 381.557,339.900 381.200,340.115 381.200 C 340.471 381.200,341.422 380.384,344.923 377.074 L 346.114 375.947 347.263 377.205 C 347.895 377.896,348.662 378.943,348.967 379.531 C 350.061 381.635,353.305 384.439,356.364 385.925 L 359.400 387.400 365.018 387.400 C 369.488 387.400,370.836 387.269,371.618 386.761 C 372.158 386.409,373.276 385.900,374.101 385.629 C 374.927 385.359,376.007 384.802,376.501 384.392 C 382.699 379.253,385.429 376.606,387.058 374.155 C 388.396 372.143,388.230 366.630,386.790 365.190 C 385.118 363.518,384.071 364.044,378.899 369.150 C 371.748 376.211,367.617 377.693,362.812 374.918 C 358.637 372.508,357.571 369.058,357.459 357.600 C 357.381 349.540,356.670 350.178,366.081 349.871 C 375.921 349.550,376.500 349.410,378.900 346.752 C 383.060 342.145,380.976 339.115,373.470 338.858 C 368.639 338.692,367.963 338.283,369.644 336.545 C 372.339 333.759,373.020 332.864,374.877 329.658 C 379.362 321.919,380.916 309.090,377.913 304.600 C 374.395 299.340,372.191 298.421,366.730 299.935 C 362.613 301.077,358.282 305.042,355.211 310.483 C 353.152 314.132,351.239 318.123,350.999 319.269 C 350.846 320.001,350.468 321.000,350.159 321.489 C 349.850 321.977,349.405 323.327,349.172 324.489 C 348.939 325.650,348.416 327.410,348.011 328.400 C 347.606 329.390,347.151 331.280,347.001 332.600 C 346.384 338.037,345.972 338.558,341.971 338.964 C 337.291 339.439,335.791 341.027,335.816 345.479 C 335.837 349.091,335.862 349.115,340.225 349.645 C 344.652 350.182,344.178 349.332,344.327 357.010 L 344.453 363.556 340.327 367.711 C 338.057 369.996,335.680 372.211,335.044 372.633 C 334.408 373.055,333.688 373.531,333.444 373.691 C 325.817 378.697,316.965 376.946,315.357 370.114 C 313.757 363.314,315.919 354.306,319.754 351.793 C 322.718 349.852,325.360 351.054,324.759 354.071 C 323.795 358.901,323.798 358.929,325.350 360.575 C 328.259 363.658,333.271 361.723,334.596 357.006 C 335.979 352.077,335.680 345.096,334.076 344.869 C 333.567 344.797,333.056 344.491,332.940 344.188 C 330.447 337.691,314.171 339.650,308.266 347.158 C 305.345 350.871,302.908 355.582,302.398 358.501 C 302.158 359.875,301.784 361.562,301.567 362.248 C 301.350 362.935,301.165 364.843,301.156 366.487 C 301.137 370.159,299.521 372.123,294.800 374.214 C 294.030 374.554,292.735 375.192,291.922 375.630 C 288.506 377.471,281.115 377.136,278.603 375.027 C 276.890 373.589,277.052 372.400,278.960 372.400 C 279.434 372.400,280.179 372.150,280.614 371.845 C 281.050 371.540,282.215 371.054,283.203 370.766 C 297.670 366.544,303.059 349.110,292.134 341.873 C 285.097 337.212,271.005 341.963,266.250 350.600 C 265.887 351.260,265.418 352.070,265.208 352.400 C 263.431 355.195,262.351 359.512,262.113 364.772 L 261.869 370.176 259.736 372.165 C 253.855 377.651,246.673 377.299,243.238 371.356 C 241.681 368.663,240.622 357.636,241.430 352.536 L 241.800 350.200 249.200 349.952 C 259.546 349.605,260.168 349.479,262.517 347.237 C 267.309 342.666,264.773 338.828,256.949 338.809 C 252.154 338.797,251.861 338.447,254.326 335.670 C 257.112 332.533,257.856 331.519,258.496 329.987 C 258.815 329.224,259.374 328.353,259.738 328.051 C 260.102 327.749,260.402 327.209,260.404 326.851 C 260.406 326.493,260.846 325.259,261.381 324.109 C 263.042 320.541,263.711 312.513,262.771 307.428 C 260.928 297.458,249.402 296.608,242.360 305.922 C 241.746 306.735,240.899 307.850,240.478 308.400 C 240.057 308.950,239.325 310.120,238.852 311.000 C 238.379 311.880,237.830 312.870,237.633 313.200 C 236.096 315.774,233.953 321.362,232.731 325.979 C 232.298 327.618,231.760 329.301,231.536 329.719 C 231.312 330.138,230.884 332.109,230.585 334.100 C 229.930 338.458,230.003 338.374,226.456 338.819 C 220.503 339.567,218.580 342.109,220.026 347.319 C 220.523 349.109,221.102 349.391,225.081 349.789 L 227.963 350.077 228.185 351.739 C 228.307 352.652,228.349 355.920,228.278 359.000 L 228.150 364.600 226.175 366.668 C 225.089 367.806,223.030 370.006,221.600 371.558 C 220.170 373.109,218.848 374.384,218.663 374.389 C 218.478 374.395,217.869 374.760,217.309 375.200 C 213.322 378.336,210.464 370.416,212.906 363.000 C 213.268 361.900,213.766 359.483,214.011 357.629 C 214.257 355.775,214.733 353.447,215.070 352.456 C 216.692 347.677,216.455 341.730,214.607 340.841 C 209.654 338.458,203.870 341.738,203.019 347.413 C 202.876 348.364,202.427 350.101,202.022 351.271 C 201.616 352.442,201.163 354.570,201.016 356.000 C 200.869 357.430,200.410 360.400,199.997 362.600 C 199.583 364.800,199.141 367.251,199.014 368.046 C 198.620 370.525,192.545 376.000,190.190 376.000 C 187.743 376.000,187.445 367.516,189.648 360.604 C 190.814 356.947,191.836 346.638,191.243 344.506 C 189.352 337.700,178.846 339.106,171.841 347.103 C 169.192 350.126,167.270 352.744,166.970 353.735 C 166.826 354.211,166.391 354.960,166.003 355.400 C 165.616 355.840,165.079 356.884,164.811 357.721 C 164.212 359.592,163.531 359.453,163.093 357.371 C 162.674 355.376,163.358 352.526,164.525 351.405 C 166.084 349.907,170.705 344.654,172.270 342.600 C 175.662 338.149,179.778 332.148,180.432 330.700 C 180.705 330.095,181.065 329.600,181.231 329.600 C 181.398 329.600,181.842 328.793,182.219 327.806 C 182.596 326.819,183.139 325.816,183.426 325.578 C 183.714 325.340,184.072 324.572,184.224 323.872 C 184.375 323.173,184.917 321.770,185.428 320.755 C 185.940 319.740,186.481 317.940,186.631 316.755 C 186.781 315.570,187.161 313.970,187.475 313.200 C 187.807 312.388,188.078 310.203,188.121 308.000 C 188.345 296.572,181.091 289.822,172.588 293.544 M181.487 294.740 C 183.834 295.996,185.648 299.127,186.215 302.903 C 186.933 307.681,186.166 316.785,184.867 318.898 C 184.427 319.614,183.942 320.877,183.788 321.703 C 183.635 322.530,183.199 323.610,182.819 324.103 C 182.439 324.597,181.944 325.540,181.720 326.200 C 181.495 326.861,180.836 328.101,180.256 328.956 C 179.675 329.812,179.200 330.737,179.200 331.013 C 179.200 331.289,178.944 331.613,178.630 331.733 C 178.317 331.853,177.764 332.576,177.402 333.339 C 177.040 334.103,176.396 335.042,175.972 335.426 C 175.547 335.810,175.200 336.338,175.200 336.599 C 175.200 336.860,174.835 337.507,174.389 338.037 C 173.943 338.566,172.514 340.350,171.213 342.000 C 168.385 345.587,167.455 346.672,164.586 349.727 C 163.384 351.007,162.399 352.087,162.397 352.127 C 162.395 352.167,162.136 354.149,161.821 356.532 C 161.159 361.552,161.255 362.096,162.742 361.743 C 164.314 361.371,165.051 360.560,165.600 358.600 C 165.871 357.632,166.432 356.533,166.846 356.158 C 167.261 355.783,167.600 355.259,167.600 354.993 C 167.600 354.727,168.140 353.831,168.800 353.000 C 169.460 352.169,170.000 351.249,170.000 350.954 C 170.000 350.660,170.450 350.124,171.000 349.763 C 171.550 349.403,172.000 348.935,172.000 348.723 C 172.000 348.386,172.901 347.483,176.195 344.516 C 176.632 344.122,177.707 343.476,178.584 343.080 C 179.461 342.684,180.303 342.157,180.456 341.910 C 181.202 340.702,187.323 341.054,188.800 342.390 L 190.200 343.656 190.117 349.371 C 190.048 354.060,189.885 355.461,189.210 357.174 C 188.758 358.321,188.215 360.924,188.005 362.956 C 187.794 364.988,187.347 367.309,187.011 368.113 C 184.576 373.939,188.904 379.370,193.375 376.100 C 199.830 371.379,200.874 369.345,201.580 360.126 C 201.806 357.171,202.199 354.776,202.578 354.043 C 202.922 353.377,203.397 351.431,203.635 349.717 C 203.872 348.002,204.303 346.330,204.593 346.000 C 204.883 345.670,205.393 344.739,205.727 343.931 C 206.662 341.666,207.876 341.080,211.242 341.270 C 215.205 341.494,216.446 344.268,214.573 348.713 C 214.229 349.531,213.698 352.180,213.395 354.600 C 213.091 357.020,212.529 359.627,212.146 360.393 C 211.407 361.869,210.828 371.664,211.355 373.764 C 212.150 376.932,215.482 378.075,218.167 376.100 C 220.021 374.736,224.800 370.150,224.800 369.734 C 224.800 369.566,225.155 369.062,225.588 368.614 C 226.021 368.166,227.011 367.131,227.788 366.313 L 229.200 364.827 229.194 357.513 C 229.187 348.750,229.354 349.111,225.143 348.749 C 221.160 348.407,220.800 348.061,220.800 344.573 C 220.800 341.450,221.045 341.249,225.405 340.799 C 230.466 340.277,230.753 340.004,231.399 335.098 C 231.537 334.052,231.897 332.719,232.199 332.137 C 232.501 331.555,232.960 329.821,233.219 328.285 C 233.478 326.749,234.014 324.932,234.409 324.246 C 234.804 323.561,235.334 321.979,235.586 320.731 C 235.838 319.483,236.308 318.242,236.630 317.975 C 236.953 317.707,237.413 316.709,237.653 315.756 C 237.893 314.804,238.341 313.815,238.649 313.559 C 238.957 313.304,239.573 312.353,240.017 311.447 C 241.516 308.393,241.954 307.779,244.343 305.386 C 248.548 301.172,248.801 301.044,253.302 300.864 L 257.263 300.704 258.632 302.031 C 259.384 302.760,260.000 303.535,260.000 303.753 C 260.000 303.970,260.405 304.580,260.900 305.106 C 262.117 306.402,262.301 319.856,261.126 321.600 C 260.755 322.150,260.232 323.500,259.963 324.600 C 259.693 325.700,259.142 327.029,258.736 327.554 C 258.331 328.079,257.993 328.709,257.984 328.954 C 257.975 329.199,257.435 330.023,256.784 330.785 C 256.133 331.547,255.600 332.381,255.600 332.639 C 255.600 332.897,255.150 333.403,254.600 333.763 C 254.050 334.124,253.600 334.626,253.600 334.880 C 253.600 335.134,253.078 335.805,252.439 336.371 C 249.126 339.309,250.808 340.800,257.434 340.800 C 264.407 340.800,265.656 342.474,261.591 346.372 C 259.128 348.733,258.837 348.790,249.162 348.796 C 239.603 348.801,240.198 348.300,240.206 356.342 C 240.218 368.118,241.380 372.538,245.240 375.494 C 247.962 377.578,253.898 377.882,256.220 376.056 C 256.818 375.585,257.476 375.200,257.682 375.200 C 258.232 375.200,262.003 371.941,262.476 371.057 C 262.700 370.640,262.930 368.204,262.988 365.643 C 263.072 361.971,263.267 360.609,263.911 359.194 C 264.360 358.207,264.860 356.680,265.021 355.800 C 265.183 354.920,265.739 353.691,266.258 353.069 C 266.776 352.447,267.200 351.698,267.200 351.403 C 267.200 350.752,268.404 349.266,270.800 346.959 C 273.690 344.178,274.398 343.600,274.920 343.600 C 275.191 343.600,276.550 343.045,277.940 342.366 C 284.112 339.356,293.671 341.927,295.649 347.129 C 296.958 350.572,296.357 358.662,294.623 360.935 C 294.060 361.672,293.600 362.400,293.600 362.551 C 293.600 362.976,290.877 365.600,290.436 365.600 C 290.221 365.600,289.810 365.926,289.523 366.325 C 289.235 366.723,288.190 367.368,287.200 367.758 C 286.210 368.148,285.130 368.703,284.800 368.992 C 284.470 369.281,283.179 369.725,281.931 369.980 C 280.683 370.235,279.446 370.704,279.182 371.022 C 278.918 371.340,278.464 371.600,278.173 371.600 C 277.883 371.600,277.140 372.035,276.522 372.566 L 275.400 373.532 277.203 375.310 C 280.294 378.358,290.351 378.785,293.869 376.017 C 294.440 375.568,295.140 375.200,295.423 375.200 C 295.707 375.200,296.447 374.775,297.069 374.255 C 297.691 373.735,298.567 373.195,299.015 373.055 C 301.144 372.390,302.800 369.446,302.803 366.324 C 302.808 361.863,303.483 356.860,304.173 356.170 C 304.506 355.837,305.001 354.807,305.272 353.882 C 305.544 352.957,306.088 351.965,306.483 351.677 C 306.877 351.390,307.200 350.924,307.200 350.642 C 307.200 349.379,314.183 343.200,315.610 343.200 C 315.985 343.200,316.807 342.795,317.436 342.300 C 320.100 340.203,328.778 341.200,331.287 343.892 C 334.086 346.895,333.999 346.717,334.034 349.514 C 334.128 356.892,334.146 356.818,331.620 359.424 C 327.935 363.227,325.041 361.183,325.969 355.433 C 326.508 352.089,326.343 351.496,324.420 349.878 C 323.059 348.733,322.212 348.809,320.061 350.268 C 319.306 350.781,318.559 351.200,318.402 351.200 C 317.767 351.200,315.124 355.890,314.802 357.587 C 314.613 358.584,314.176 359.940,313.831 360.600 C 312.897 362.389,312.968 368.179,313.947 370.006 C 314.357 370.773,314.815 371.953,314.963 372.629 C 315.402 374.632,318.310 376.766,321.245 377.238 C 324.256 377.723,330.140 377.155,331.119 376.284 C 331.494 375.952,332.430 375.390,333.200 375.037 C 335.615 373.927,341.600 368.916,341.600 368.003 C 341.600 367.841,342.320 367.210,343.199 366.601 C 345.388 365.084,345.714 363.630,345.541 356.168 C 345.369 348.799,345.480 348.980,340.974 348.699 C 336.824 348.440,337.022 348.626,337.022 344.987 C 337.022 341.310,337.124 341.212,341.303 340.831 C 343.811 340.602,345.032 340.290,345.939 339.644 C 347.218 338.733,347.351 338.317,347.785 333.876 C 347.910 332.598,348.284 331.138,348.617 330.631 C 348.949 330.124,349.417 328.559,349.657 327.154 C 349.898 325.749,350.417 324.060,350.812 323.400 C 351.207 322.740,351.655 321.354,351.807 320.320 C 351.960 319.286,352.516 317.856,353.042 317.143 C 353.569 316.429,354.000 315.452,354.000 314.971 C 354.000 314.491,354.299 313.851,354.663 313.549 C 355.028 313.247,355.613 312.370,355.963 311.599 C 356.948 309.433,357.967 308.114,361.000 305.084 C 365.336 300.751,364.772 301.036,369.354 300.866 L 373.469 300.714 374.931 302.257 C 375.735 303.106,376.395 304.042,376.397 304.338 C 376.398 304.634,376.805 305.444,377.300 306.138 C 378.535 307.870,378.678 318.708,377.489 320.521 C 377.098 321.117,376.605 322.518,376.394 323.634 C 376.182 324.750,375.647 326.123,375.204 326.685 C 374.762 327.248,374.400 328.016,374.400 328.392 C 374.400 328.768,374.022 329.418,373.559 329.837 C 373.097 330.256,372.441 331.139,372.103 331.799 C 371.498 332.979,371.089 333.485,368.927 335.718 C 368.104 336.568,366.872 338.985,366.806 339.881 C 366.775 340.295,370.559 340.796,373.726 340.798 C 378.293 340.800,379.200 341.137,379.200 342.827 C 379.200 344.367,378.187 346.800,377.546 346.800 C 377.274 346.800,376.621 347.205,376.094 347.700 C 375.176 348.562,374.771 348.608,366.378 348.800 C 355.049 349.059,355.800 348.483,355.800 356.912 C 355.800 360.849,355.975 363.424,356.297 364.200 C 356.570 364.860,356.962 366.622,357.168 368.114 C 357.720 372.105,359.284 374.269,363.368 376.694 C 364.730 377.503,369.955 377.334,371.600 376.427 C 372.370 376.003,373.362 375.484,373.804 375.274 C 374.859 374.774,382.000 367.854,382.000 367.332 C 382.000 366.730,384.955 365.868,385.943 366.182 C 387.320 366.619,387.216 372.244,385.800 373.927 C 385.250 374.581,384.790 375.270,384.778 375.458 C 384.766 375.646,383.661 376.790,382.323 378.000 C 380.985 379.210,379.393 380.695,378.785 381.300 C 378.177 381.905,377.506 382.400,377.295 382.400 C 377.083 382.400,376.231 382.940,375.400 383.600 C 374.569 384.260,373.507 384.800,373.039 384.800 C 372.571 384.800,371.471 385.203,370.594 385.695 C 368.501 386.871,361.263 386.993,359.576 385.882 C 359.013 385.511,357.733 384.961,356.732 384.660 C 355.731 384.358,354.530 383.772,354.064 383.356 C 351.439 381.017,350.130 379.604,349.687 378.632 C 349.069 377.275,346.785 374.400,346.325 374.400 C 346.137 374.400,344.682 375.676,343.092 377.235 C 341.501 378.793,339.705 380.328,339.100 380.645 C 338.495 380.961,338.000 381.382,338.000 381.579 C 338.000 381.777,337.325 382.154,336.500 382.418 C 335.675 382.682,334.640 383.217,334.200 383.606 C 333.760 383.994,332.446 384.512,331.280 384.756 C 330.114 385.000,328.584 385.515,327.880 385.900 C 325.854 387.008,317.972 386.860,315.806 385.673 C 314.929 385.193,313.743 384.800,313.170 384.800 C 311.986 384.800,309.764 383.301,307.685 381.100 C 305.770 379.071,301.585 379.385,300.374 381.648 C 300.153 382.062,299.643 382.400,299.242 382.400 C 298.840 382.400,297.834 382.860,297.007 383.421 C 296.179 383.983,294.759 384.582,293.851 384.753 C 292.943 384.923,291.480 385.409,290.600 385.832 C 288.404 386.886,279.553 386.940,278.000 385.909 C 277.450 385.543,276.118 385.048,275.040 384.807 C 273.961 384.566,272.553 383.926,271.909 383.385 C 271.265 382.843,270.502 382.400,270.212 382.400 C 269.923 382.400,269.591 382.152,269.474 381.850 C 269.358 381.547,268.416 380.728,267.381 380.029 L 265.498 378.758 264.734 379.579 C 264.313 380.031,263.823 380.400,263.644 380.400 C 263.465 380.400,262.762 380.895,262.083 381.500 C 259.719 383.603,258.554 384.328,256.782 384.795 C 255.802 385.054,254.550 385.565,254.000 385.933 C 252.430 386.981,245.152 386.792,243.015 385.648 C 242.144 385.182,241.138 384.800,240.780 384.800 C 239.190 384.800,233.896 379.909,233.199 377.796 C 232.463 375.568,228.811 374.875,228.186 376.845 C 228.045 377.287,227.496 377.847,226.965 378.089 C 226.434 378.330,226.000 378.652,226.000 378.803 C 226.000 379.167,223.240 381.999,222.881 382.004 C 222.726 382.006,221.810 382.636,220.844 383.404 C 219.878 384.172,218.798 384.801,218.444 384.801 C 218.090 384.802,217.170 385.196,216.400 385.677 C 214.603 386.798,209.334 386.983,208.142 385.967 C 207.734 385.619,206.737 385.031,205.927 384.661 C 204.965 384.222,204.129 383.399,203.521 382.294 C 202.306 380.084,200.307 379.743,198.284 381.403 C 195.283 383.863,193.839 384.800,193.045 384.801 C 192.580 384.802,191.579 385.182,190.819 385.645 C 188.712 386.929,183.867 387.138,182.000 386.024 C 181.230 385.565,180.105 384.994,179.500 384.756 C 178.895 384.517,178.400 384.173,178.400 383.992 C 178.400 383.810,177.905 383.073,177.300 382.353 C 175.759 380.521,175.611 370.356,177.076 366.981 C 178.152 364.502,178.774 357.447,178.038 356.071 C 177.164 354.439,172.800 356.198,172.800 358.182 C 172.800 358.416,172.440 358.832,172.000 359.107 C 171.560 359.382,171.200 359.861,171.200 360.173 C 171.200 360.484,170.749 361.275,170.198 361.929 C 169.647 362.584,169.086 363.669,168.952 364.340 C 168.818 365.010,168.373 365.862,167.964 366.233 C 167.554 366.603,167.012 367.963,166.758 369.253 C 166.504 370.544,166.161 371.600,165.996 371.600 C 165.544 371.600,164.890 373.558,164.593 375.800 C 164.448 376.900,164.076 378.083,163.767 378.429 C 163.457 378.775,162.959 379.875,162.658 380.873 C 162.082 382.788,161.517 383.489,159.052 385.347 C 155.796 387.801,151.891 386.452,150.828 382.504 C 150.210 380.209,148.762 379.918,147.218 381.778 C 146.934 382.120,146.389 382.400,146.007 382.400 C 145.624 382.400,144.646 382.852,143.833 383.403 C 143.020 383.955,141.536 384.590,140.536 384.814 C 139.536 385.038,138.152 385.532,137.459 385.911 C 135.454 387.008,127.559 386.853,125.406 385.673 C 124.529 385.193,123.339 384.800,122.761 384.800 C 122.183 384.800,121.031 384.260,120.200 383.600 C 119.369 382.940,118.564 382.400,118.411 382.400 C 117.625 382.400,112.818 375.355,112.807 374.189 C 112.788 372.035,111.868 371.604,107.855 371.867 C 102.123 372.244,100.965 371.949,98.190 369.407 L 95.824 367.240 95.668 361.720 C 95.499 355.717,95.323 355.200,93.451 355.200 C 92.049 355.200,89.118 358.170,88.352 360.365 C 88.128 361.009,87.705 361.628,87.412 361.740 C 87.120 361.852,86.656 362.632,86.382 363.472 C 86.108 364.312,85.555 365.423,85.152 365.941 C 84.750 366.458,84.298 367.538,84.148 368.341 C 83.997 369.143,83.553 370.250,83.160 370.800 C 82.767 371.350,82.262 372.831,82.038 374.091 C 81.814 375.351,81.348 376.813,81.003 377.340 C 80.657 377.867,80.210 379.310,80.009 380.548 C 78.935 387.143,72.781 388.779,69.918 383.230 C 68.449 380.383,67.373 380.294,64.395 382.772 C 63.055 383.887,61.632 384.800,61.233 384.800 C 60.834 384.800,59.997 385.202,59.372 385.694 C 56.017 388.332,49.008 385.300,46.879 380.289 C 46.027 378.283,44.970 378.535,42.461 381.338 C 40.453 383.582,39.046 384.800,38.460 384.801 C 38.097 384.802,37.170 385.197,36.400 385.679 C 34.580 386.819,29.309 386.980,28.136 385.931 C 27.731 385.570,26.836 385.032,26.147 384.737 C 24.663 384.101,21.600 380.661,21.600 379.630 C 21.600 379.233,21.195 378.393,20.700 377.763 C 19.487 376.220,19.314 364.916,20.478 363.200 C 20.851 362.650,21.344 361.355,21.574 360.323 C 21.805 359.290,22.445 357.780,22.997 356.967 C 23.548 356.154,24.000 355.227,24.000 354.907 C 24.000 354.306,24.866 353.055,27.100 350.430 C 27.815 349.590,28.400 348.700,28.400 348.452 C 28.400 348.203,28.582 348.000,28.804 348.000 C 29.026 348.000,29.772 347.460,30.463 346.800 C 31.154 346.140,31.858 345.600,32.029 345.600 C 32.199 345.600,32.847 345.176,33.469 344.658 C 34.091 344.140,35.320 343.487,36.200 343.207 C 37.080 342.928,38.133 342.407,38.541 342.049 C 39.095 341.563,40.316 341.366,43.392 341.265 L 47.501 341.130 48.457 342.865 L 49.412 344.600 52.847 344.800 C 57.446 345.068,58.529 346.137,57.626 349.515 C 57.407 350.332,57.038 353.038,56.804 355.530 C 56.544 358.300,56.138 360.428,55.759 361.007 C 54.907 362.307,54.185 372.515,54.787 374.751 C 55.819 378.585,59.896 377.780,64.665 372.800 C 65.402 372.030,66.479 370.910,67.058 370.311 C 68.055 369.280,68.127 368.927,68.408 363.711 C 68.588 360.357,68.954 357.525,69.343 356.477 C 69.694 355.529,70.158 353.369,70.374 351.677 C 70.590 349.985,71.134 347.887,71.583 347.015 C 72.033 346.144,72.400 345.205,72.400 344.929 C 72.400 343.096,75.348 341.424,78.600 341.412 L 81.800 341.400 81.918 344.101 C 82.009 346.171,81.839 347.246,81.192 348.701 C 80.728 349.745,80.175 352.130,79.963 354.000 C 79.752 355.870,79.296 358.145,78.952 359.056 C 78.462 360.350,78.425 360.899,78.783 361.567 C 79.352 362.631,82.557 359.754,83.032 357.752 C 83.182 357.119,83.633 356.238,84.033 355.795 C 84.434 355.352,85.043 354.317,85.386 353.495 C 85.730 352.673,86.176 352.000,86.378 352.000 C 86.581 352.000,86.864 351.629,87.008 351.175 C 87.418 349.882,93.518 344.014,95.350 343.151 C 96.257 342.723,97.450 342.112,98.000 341.792 C 100.180 340.527,104.521 341.001,106.208 342.688 L 107.697 344.177 107.515 348.188 C 107.391 350.930,107.112 352.625,106.634 353.542 C 105.058 356.572,105.899 361.046,108.200 361.865 C 110.657 362.739,112.195 361.712,112.765 358.815 C 113.026 357.487,113.397 356.400,113.588 356.400 C 113.779 356.400,114.244 355.455,114.622 354.300 C 114.999 353.145,115.644 351.878,116.054 351.484 C 116.464 351.091,116.800 350.602,116.800 350.397 C 116.800 349.300,123.176 343.835,125.280 343.130 C 126.006 342.886,126.934 342.397,127.342 342.043 C 129.581 340.102,138.290 341.297,140.896 343.904 C 145.823 348.831,143.755 361.132,137.991 361.187 C 135.734 361.208,134.909 359.311,135.569 355.617 C 136.146 352.389,136.008 351.741,134.421 350.220 C 131.508 347.429,125.505 351.777,124.426 357.460 C 124.223 358.527,123.776 359.940,123.431 360.600 C 122.497 362.389,122.568 368.179,123.547 370.006 C 123.957 370.773,124.416 371.960,124.566 372.645 C 125.566 377.205,136.334 379.264,141.357 375.855 C 142.212 375.275,143.155 374.800,143.452 374.800 C 143.750 374.800,144.218 374.440,144.493 374.000 C 144.768 373.560,145.177 373.200,145.403 373.200 C 145.630 373.200,146.915 372.165,148.259 370.900 L 150.704 368.600 150.948 360.000 C 151.112 354.230,151.393 350.676,151.801 349.200 C 152.135 347.990,152.602 344.403,152.839 341.228 C 153.118 337.467,153.524 334.807,154.004 333.591 C 154.408 332.564,154.861 330.391,155.009 328.762 C 155.158 327.133,155.623 325.115,156.044 324.279 C 156.465 323.442,156.971 321.615,157.169 320.220 C 157.366 318.824,157.807 317.256,158.148 316.736 C 158.489 316.215,158.967 314.859,159.211 313.721 C 159.455 312.583,159.911 311.440,160.225 311.180 C 160.538 310.920,160.983 310.004,161.215 309.145 C 161.446 308.286,162.077 306.932,162.618 306.136 C 163.158 305.340,163.600 304.376,163.600 303.993 C 163.600 303.611,163.882 303.064,164.226 302.778 C 164.571 302.492,165.135 301.713,165.479 301.047 C 166.701 298.684,171.030 295.187,173.568 294.513 C 175.567 293.982,180.326 294.118,181.487 294.740 M173.706 302.752 C 171.879 304.729,171.243 305.693,170.982 306.882 C 170.827 307.589,170.376 308.626,169.982 309.184 C 169.587 309.743,169.070 311.150,168.834 312.311 C 168.597 313.473,168.132 314.837,167.801 315.343 C 167.469 315.849,167.023 317.644,166.809 319.333 C 166.594 321.021,166.148 322.927,165.816 323.569 C 165.484 324.210,164.960 326.865,164.650 329.468 C 164.340 332.070,163.887 334.707,163.643 335.326 C 162.703 337.714,163.598 341.695,164.668 339.881 C 164.850 339.570,165.393 339.111,165.873 338.859 C 166.846 338.348,168.868 335.693,169.802 333.700 C 170.137 332.985,170.561 332.400,170.745 332.400 C 170.928 332.400,171.421 331.636,171.839 330.703 C 172.258 329.770,172.897 328.708,173.259 328.344 C 173.622 327.980,174.049 327.085,174.210 326.357 C 174.370 325.628,174.821 324.574,175.213 324.016 C 175.605 323.457,176.041 322.320,176.183 321.488 C 176.325 320.657,176.836 319.307,177.320 318.488 C 178.608 316.310,178.670 304.475,177.400 303.261 C 176.152 302.069,174.542 301.847,173.706 302.752 M176.485 304.423 L 177.708 305.646 177.499 310.323 C 177.339 313.905,177.094 315.422,176.454 316.800 C 175.994 317.790,175.614 319.047,175.609 319.594 C 175.595 321.162,171.991 328.599,169.292 332.630 C 168.691 333.527,167.774 334.927,167.254 335.741 C 165.181 338.986,164.369 332.341,166.210 327.199 C 166.564 326.210,167.115 323.810,167.434 321.866 C 167.753 319.923,168.261 317.853,168.561 317.266 C 168.862 316.680,169.330 315.127,169.600 313.816 C 169.870 312.505,170.342 311.051,170.647 310.584 C 170.953 310.118,171.479 308.806,171.817 307.668 C 172.155 306.531,172.599 305.600,172.805 305.600 C 173.011 305.600,173.459 305.060,173.800 304.400 C 174.578 302.895,174.960 302.898,176.485 304.423 M249.116 310.140 C 248.281 311.053,247.395 312.430,247.148 313.200 C 246.901 313.970,246.448 314.889,246.141 315.241 C 245.834 315.594,245.338 317.124,245.040 318.641 C 244.742 320.159,244.219 321.920,243.878 322.555 C 243.537 323.190,243.133 325.080,242.981 326.755 C 242.829 328.430,242.472 330.520,242.188 331.400 C 241.308 334.133,241.152 335.422,241.570 336.520 L 241.972 337.579 243.551 336.889 C 245.096 336.215,248.400 332.697,248.400 331.727 C 248.400 331.459,248.647 331.096,248.948 330.920 C 249.249 330.744,249.877 329.847,250.342 328.927 C 250.808 328.007,251.353 327.153,251.554 327.028 C 251.755 326.904,252.134 325.907,252.397 324.813 C 252.659 323.719,253.217 322.150,253.637 321.327 C 254.772 319.101,254.753 311.357,253.609 309.902 C 252.235 308.155,250.865 308.228,249.116 310.140 M365.227 310.069 C 364.354 311.015,363.533 312.214,363.402 312.734 C 363.271 313.254,362.829 314.157,362.418 314.740 C 362.008 315.323,361.550 316.684,361.402 317.766 C 361.253 318.847,360.799 320.351,360.393 321.109 C 359.987 321.867,359.536 323.682,359.390 325.143 C 359.245 326.604,358.783 328.944,358.363 330.342 C 356.804 335.536,357.486 338.165,360.021 336.740 C 360.890 336.252,361.600 335.751,361.601 335.626 C 361.601 335.502,362.321 334.590,363.200 333.600 C 364.079 332.610,364.799 331.584,364.799 331.320 C 364.800 331.056,365.057 330.696,365.371 330.520 C 365.686 330.344,366.322 329.390,366.785 328.400 C 367.248 327.410,367.888 326.150,368.208 325.600 C 368.527 325.050,368.791 324.147,368.794 323.594 C 368.797 323.041,369.190 321.871,369.667 320.994 C 373.078 314.723,369.365 305.588,365.227 310.069 M253.094 311.643 C 253.680 312.778,253.735 316.035,253.200 318.000 C 252.991 318.770,252.456 320.735,252.011 322.367 C 251.566 324.000,250.961 325.620,250.667 325.967 C 250.373 326.315,249.885 327.222,249.583 327.983 C 249.281 328.743,248.757 329.674,248.417 330.052 C 248.078 330.429,247.096 331.652,246.234 332.769 C 244.631 334.849,243.757 335.275,243.338 334.181 C 242.980 333.251,243.902 326.810,244.744 324.357 C 245.151 323.170,245.614 321.300,245.773 320.200 C 245.932 319.100,246.331 317.782,246.659 317.272 C 246.987 316.762,247.490 315.565,247.776 314.612 C 249.082 310.275,251.648 308.842,253.094 311.643 M368.693 311.431 C 369.986 313.702,368.870 323.022,367.045 325.194 C 366.765 325.527,366.226 326.639,365.848 327.665 C 365.470 328.690,364.900 329.630,364.580 329.752 C 364.261 329.875,364.000 330.171,364.000 330.411 C 364.000 331.061,361.107 334.400,360.544 334.400 C 360.276 334.400,359.766 334.691,359.410 335.048 C 358.602 335.855,358.198 335.526,358.743 334.506 C 358.968 334.087,359.453 331.686,359.821 329.172 C 360.190 326.657,360.805 323.790,361.189 322.800 C 361.572 321.810,361.999 320.266,362.137 319.369 C 362.637 316.116,366.317 309.376,367.400 309.731 C 367.620 309.803,368.202 310.568,368.693 311.431 M209.800 318.574 C 203.081 321.754,202.398 330.017,208.622 332.839 C 216.177 336.265,223.804 330.879,222.386 323.121 C 221.578 318.703,214.745 316.234,209.800 318.574 M218.500 319.990 C 219.325 320.236,220.000 320.693,220.000 321.005 C 220.000 321.317,220.360 321.765,220.800 322.000 C 222.265 322.784,221.931 326.737,220.196 329.152 C 216.557 334.218,206.601 333.279,205.778 327.792 C 204.767 321.054,210.431 317.580,218.500 319.990 M42.039 349.561 C 41.621 349.979,40.888 350.445,40.410 350.597 C 39.356 350.931,36.136 354.178,35.349 355.700 C 35.036 356.305,34.618 356.800,34.421 356.800 C 34.223 356.800,33.840 357.475,33.568 358.300 C 33.296 359.125,32.720 360.279,32.288 360.864 C 31.165 362.386,30.443 370.975,31.167 374.208 C 32.127 378.497,38.728 379.016,40.794 374.965 C 41.121 374.324,41.689 373.350,42.057 372.800 C 42.424 372.250,42.845 371.080,42.992 370.200 C 43.139 369.320,43.529 368.182,43.858 367.670 C 44.188 367.159,44.634 365.017,44.849 362.911 C 45.065 360.804,45.501 358.577,45.820 357.962 C 46.726 356.209,47.395 350.947,46.861 349.774 C 46.280 348.499,43.236 348.364,42.039 349.561 M280.872 349.656 C 277.525 351.312,275.370 354.350,274.528 358.600 C 274.223 360.140,273.875 361.854,273.755 362.409 C 273.125 365.310,277.689 365.544,281.856 362.824 C 284.586 361.042,286.400 359.429,286.400 358.782 C 286.400 358.531,286.760 357.869,287.200 357.309 C 290.173 353.530,285.199 347.515,280.872 349.656 M45.934 351.011 C 46.008 351.644,45.706 353.430,45.263 354.981 C 44.820 356.531,44.337 358.874,44.190 360.186 C 44.042 361.498,43.593 363.658,43.193 364.986 C 42.792 366.314,42.258 368.432,42.005 369.693 C 41.753 370.954,41.383 372.087,41.184 372.210 C 40.984 372.333,40.516 373.078,40.143 373.864 C 38.582 377.153,33.746 377.795,32.423 374.890 C 31.918 373.783,31.794 366.435,32.247 364.466 C 33.326 359.770,39.455 351.200,41.734 351.200 C 42.046 351.200,42.517 350.941,42.780 350.624 C 43.243 350.066,44.584 349.638,45.400 349.788 C 45.620 349.829,45.860 350.379,45.934 351.011 M285.306 351.521 C 288.307 354.130,285.785 359.606,280.348 362.289 C 275.475 364.693,274.681 364.333,275.225 359.962 C 276.028 353.520,281.925 348.582,285.306 351.521 " stroke="none" fill="#3d90e3" fill-rule="evenodd"></path></g></svg>